
<svg xmlns="http://www.w3.org/2000/svg" xmlns:xlink="http://www.w3.org/1999/xlink" viewBox="0 0 193.7616 53.6679" height="202.8392" width="732.3272">
  <defs>
    <linearGradient id="f">
      <stop offset="0" stop-color="#b7c7d7"/>
      <stop offset=".4794" stop-color="#fff"/>
      <stop offset="1" stop-color="#bdc7d5"/>
    </linearGradient>
    <linearGradient id="d">
      <stop offset="0" stop-color="#a2b9df"/>
      <stop offset=".4794" stop-color="#ecf6fe"/>
      <stop offset="1" stop-color="#a5bfd0"/>
    </linearGradient>
    <linearGradient id="e">
      <stop offset="0" stop-color="#c4cfd6"/>
      <stop offset="1" stop-color="#9aacb8"/>
    </linearGradient>
    <linearGradient id="c">
      <stop offset="0" stop-color="#b7c7d7"/>
      <stop offset=".4794" stop-color="#fff"/>
      <stop offset="1" stop-color="#c5cdcd"/>
    </linearGradient>
    <linearGradient id="b">
      <stop offset="0" stop-color="#fff"/>
      <stop offset="1" stop-color="#fff" stop-opacity=".2357"/>
    </linearGradient>
    <linearGradient id="a">
      <stop offset="0" stop-color="#94a8ec"/>
      <stop offset=".4794" stop-color="#fff"/>
      <stop offset="1" stop-color="#d0e8fc"/>
    </linearGradient>
    <linearGradient gradientTransform="translate(60.7399 -33.4766)" gradientUnits="userSpaceOnUse" y2="96.3428" x2="-8.4644" y1="71.659" x1="-11.5147" id="g" xlink:href="#a"/>
    <linearGradient gradientTransform="matrix(.26458 0 0 .26458 60.7399 -33.4766)" gradientUnits="userSpaceOnUse" y2="257.6546" x2="-343.175" y1="281.8249" x1="-367.2758" id="h" xlink:href="#b"/>
    <linearGradient gradientTransform="translate(-19.5157 86.2578)" y2="96.3428" x2="-8.4644" y1="71.659" x1="-11.5147" gradientUnits="userSpaceOnUse" id="i" xlink:href="#c"/>
    <linearGradient y2="96.3428" x2="-8.4644" y1="71.659" x1="-11.5147" gradientTransform="translate(-234.8144 26.4017)" gradientUnits="userSpaceOnUse" id="j" xlink:href="#d"/>
    <linearGradient y2="96.3428" x2="-8.4644" y1="71.659" x1="-11.5147" gradientTransform="translate(508.5969 139.223)" gradientUnits="userSpaceOnUse" id="k" xlink:href="#c"/>
    <linearGradient gradientTransform="matrix(.26458 0 0 .26458 508.6142 139.257)" y2="257.6546" x2="-343.175" y1="281.8249" x1="-367.2758" gradientUnits="userSpaceOnUse" id="l" xlink:href="#b"/>
    <linearGradient gradientUnits="userSpaceOnUse" y2="838.24" x2="-1373.6534" y1="868.8264" x1="-1368.8339" id="m" xlink:href="#e"/>
    <linearGradient y2="96.3428" x2="-8.4644" y1="71.659" x1="-11.5147" gradientTransform="translate(-328.3257 248.4876)" gradientUnits="userSpaceOnUse" id="n" xlink:href="#f"/>
    <linearGradient y2="96.3428" x2="-8.4644" y1="71.659" x1="-11.5147" gradientTransform="translate(-84.8924 160.916)" gradientUnits="userSpaceOnUse" id="o" xlink:href="#f"/>
    <clipPath id="p">
      <path d="M714.047 23.099H813.9v34.16h-99.853z"/>
    </clipPath>
  </defs>
  <g>
    <g data-airplane="british-airways" opacity="0" transform="translate(69.568 -19.0415)">
      <path d="M-47.2717 61.1908l-22.2962-8.3036s6.7803-1.2844 8.6815-.6712c1.901.6132 22.8086 4.086 22.8086 4.086l5.0962 2.535z" fill="#8598d5"/>
      <path d="M3.8056 35.7304L.3611 37.3395l7.0013.1238 2.5527 1.0028-3.226 1.4432 6.8792.2397 2.3114.6923-2.944 1.4872 8.1471.7243-2.0797 1.5589 6.4817.3507-.2052-1.434z" fill="#ccc"/>
      <path d="M49.5639 43.157s-36.409-6.3266-44.483-10.6313c0 0-22.4022-8.187-25.594-6.7407 0 0 14.388 6.0484 15.9241 7.296l35.9017 14.8546z" fill="#e6e5ff"/>
      <path d="M-52.1436 62.2326l14.9514-3.85-2.8832-1.4143-19.6006-37.9268 12.0288 1.0894s.5869-.0909 1.1724.4303c9.803 9.0717 20.561 17.9282 30.8289 26.734 0 0 3.8755 4.7677 10.2533 3.372l114.042-16.8316s9.6014-.2882 12.82 2.3183c0 0 1.6653 1.837 2.004 2.5223l.6746.9346s.5004 1.6248-1.8116 3.8875c0 0-4.0814 3.2427-7.9153 4.1763L65.4629 57.505l-4.245 2.7484-10.3429 1.7538s-5.2588.9683-12.194.3714L5.2875 68.737s-11.697.336-17.7217-.1206l-39.4952-2.196z" fill="url(#g)"/>
      <path d="M83.4294 61.1216s1.2261 5.1147 4.3445 5.3277c3.1184.213 3.5393-3.9253 3.5393-3.9253z" opacity=".4884"/>
      <path d="M98.3045 52.3238l-1.6996.1235s-2.8971 2.0393-7.0647 3.4902c-4.1676 1.451-.3406 2.7208-.3406 2.7208l-.8506 3.3388 2.9642.5271s-.421 4.1379-3.5393 3.9248a2.8715 2.8715 0 01-.5126-.0837c.0845.1654.7256 1.0734 4.5046.493 0 0 8.3433-1.3614 11.023-3.5667 0 0 2.0223-9.1529-4.4844-10.9678z" fill="#253271"/>
      <path d="M96.2891 52.4024c-1.9267-.0573-8.8248 2.3073-8.8248 2.3073l.9023 1.7405c.2904-.1672.6731-.3384 1.1736-.5127 4.1676-1.451 7.0647-3.4902 7.0647-3.4902-.0808-.0267-.1873-.0411-.3158-.045z" fill="#e6e6e6"/>
      <path d="M98.3045 52.3238c6.5067 1.815 4.4845 10.9678 4.4845 10.9678 1.9205-1.8186 1.9573-3.723 1.157-7.0626-.8002-3.3397-5.6415-3.9052-5.6415-3.9052zm4.4845 10.9678a4.826 4.826 0 01-.216.1649 1.3752 1.3752 0 00.216-.1649z" fill="#e6e6e6"/>
      <path d="M64.1485 58.6826l-.8698.4661-2.0608 1.1049 1.139.477 2.5956.0066 3.173.0083 2.5104-1.3027 3.8902-.0884-1.1203.802-2.2738 1.6289 2.5688-.1075 2.5508-.1065 1.5002-.7912-2.9756 1.803 1.233.2181 4.7109-.2806.7028-.6356 1.0955-.3881-.3312.2522-2.5146 1.9136 4.0907-.1096 1.8774-.4832.3038-.7131 1.4785-.3731-2.281 2.4107 1.9834-.0817 4.102-.7451 1.2134-.6636-.6439-.7984-12.544-3.3827z" fill="#ccc"/>
      <rect width=".9173" height="1.586" x="1.3021" y="60.122" ry=".4586"/>
      <rect ry=".4586" y="60.122" x="1.3021" height="1.586" width=".9173"/>
      <rect ry=".4586" y="59.8507" x="2.8918" height="1.586" width=".9173"/>
      <rect width=".9173" height="1.586" x="2.8918" y="59.8507" ry=".4586"/>
      <rect width=".9173" height="1.586" x="4.6449" y="59.5502" ry=".4586"/>
      <rect ry=".4586" y="59.2789" x="6.2346" height="1.586" width=".9173"/>
      <rect width=".9173" height="1.586" x="7.8819" y="58.9423" ry=".4586"/>
      <rect ry=".4586" y="58.671" x="9.4716" height="1.586" width=".9173"/>
      <rect ry=".4586" y="58.3705" x="11.2247" height="1.586" width=".9173"/>
      <rect width=".9173" height="1.586" x="12.8144" y="58.0992" ry=".4586"/>
      <rect width=".9173" height="1.586" x="14.1046" y="57.9094" ry=".4586"/>
      <rect ry=".4586" y="57.6381" x="15.6943" height="1.586" width=".9173"/>
      <rect ry=".4586" y="57.3376" x="17.4474" height="1.586" width=".9173"/>
      <rect width=".9173" height="1.586" x="19.0371" y="57.0663" ry=".4586"/>
      <rect ry=".4586" y="56.7296" x="20.6844" height="1.586" width=".9173"/>
      <rect width=".9173" height="1.586" x="22.2741" y="56.4584" ry=".4586"/>
      <rect width=".9173" height="1.586" x="24.0272" y="56.1578" ry=".4586"/>
      <rect ry=".4586" y="55.8866" x="25.6169" height="1.586" width=".9173"/>
      <rect ry=".4586" y="55.6599" x="27.2809" height="1.586" width=".9173"/>
      <rect width=".9173" height="1.586" x="28.8706" y="55.3886" ry=".4586"/>
      <rect width=".9173" height="1.586" x="30.6237" y="55.0881" ry=".4586"/>
      <rect ry=".4586" y="54.8169" x="32.2134" height="1.586" width=".9173"/>
      <rect width=".9173" height="1.586" x="33.8607" y="54.4802" ry=".4586"/>
      <rect ry=".4586" y="54.2089" x="35.4505" height="1.586" width=".9173"/>
      <rect ry=".4586" y="53.9084" x="37.2035" height="1.586" width=".9173"/>
      <rect width=".9173" height="1.586" x="38.7932" y="53.6371" ry=".4586"/>
      <rect width=".8639" height="1.586" x="53.2506" y="51.2253" ry=".4586"/>
      <rect ry=".4586" y="50.9541" x="54.7479" height="1.586" width=".8639"/>
      <rect ry=".4586" y="50.6535" x="56.399" height="1.586" width=".8639"/>
      <rect width=".8639" height="1.586" x="57.8963" y="50.3823" ry=".4586"/>
      <rect ry=".4586" y="50.0456" x="59.4478" height="1.586" width=".8639"/>
      <rect width=".8639" height="1.586" x="60.945" y="49.7743" ry=".4586"/>
      <rect width=".8639" height="1.586" x="62.5961" y="49.4738" ry=".4586"/>
      <rect ry=".4586" y="49.2025" x="64.0934" height="1.586" width=".8639"/>
      <rect ry=".3934" y="47.9951" x="72.0246" height="1.3603" width=".8494"/>
      <rect width=".8494" height="1.3603" x="73.4967" y="47.7624" ry=".3934"/>
      <rect width=".8494" height="1.3603" x="75.12" y="47.5047" ry=".3934"/>
      <rect ry=".3934" y="47.272" x="76.5921" height="1.3603" width=".8494"/>
      <rect width=".8494" height="1.3603" x="78.1175" y="46.9833" ry=".3934"/>
      <rect ry=".3934" y="46.7506" x="79.5895" height="1.3603" width=".8494"/>
      <rect ry=".3934" y="46.4928" x="81.2129" height="1.3603" width=".8494"/>
      <rect width=".8494" height="1.3603" x="82.6849" y="46.2602" ry=".3934"/>
      <rect width=".7535" height="1.586" x="107.6248" y="42.0545" ry=".4586"/>
      <rect ry=".4586" y="41.7833" x="108.9307" height="1.586" width=".7535"/>
      <rect ry=".4586" y="41.4827" x="110.3707" height="1.586" width=".7535"/>
      <rect width=".7535" height="1.586" x="111.6765" y="41.2115" ry=".4586"/>
      <rect ry=".4586" y="40.8748" x="113.0297" height="1.586" width=".7535"/>
      <rect width=".7535" height="1.586" x="114.3355" y="40.6035" ry=".4586"/>
      <rect width=".7535" height="1.586" x="115.7756" y="40.303" ry=".4586"/>
      <rect ry=".4586" y="40.0318" x="117.0814" height="1.586" width=".7535"/>
      <rect ry=".4586" y="42.9198" x="103.6519" height="1.586" width=".7535"/>
      <rect width=".7535" height="1.586" x="104.9578" y="42.6485" ry=".4586"/>
      <rect width=".7535" height="1.586" x="106.3978" y="42.348" ry=".4586"/>
      <path d="M-58.6239 21.0776l18.5312 35.8568 23.1566-4.813 5.8689-.9075c-1.6081-.1213-2.8842-.629-4.2567-1.3834l-31.1917-28.1829z" fill="url(#h)"/>
      <path d="M-19.9012 45.7749s-1.8812 2.284-4.1362 3.0158c-2.255.7318-6.1918 1.603-6.1918 1.603s-4.0742 1.8256-5.3005 3.3264c-.8306 1.0165-3.2118 2.2764-4.6777 2.9926l.1322.2558 2.883 1.4138-14.9515 3.8505.2145 4.1873 15.8605.8821 1.2366-2.839s3.7865-6.996 6.5712-7.2462c2.7847-.2502 6.1082-.3291 6.1082-.3291s2.0426-.4273 2.3466-2.2831c0 0 3.6053-4.149 3.486-5.5981z" fill="#d43134"/>
      <path d="M-52.4222 26.8608c-.9338.0106-2.007.0597-3.1197.1803l5.7738 11.172c2.5483-.7713 5.9595-1.5634 8.5607-1.277 4.73.5209 10.7585 2.8898 10.7585 2.8898s3.309.6978 4.1186.384l-8.758-8.1551s-4.203-.913-6.2555-2.4516c-2.0526-1.5386-7.9303-2.6386-7.9303-2.6386s-1.3028-.1248-3.1481-.1038z" fill="#d33134"/>
      <path d="M-42.4507 41.7384c-2.8416.0075-4.9175 1.0697-4.9175 1.0697l-.0223.0057 4.4897 8.6878c1.4211-1.3802 3.5782-2.8347 4.7428-3.2514 1.5052-.5386 8.432-1.6046 8.432-1.6046 3.9904-.9707 5.687-3.6556 5.687-3.6556-2.3 1.9094-8.939.8666-8.939.8666s-2.1487-.4548-6.4243-1.696c-1.069-.3103-2.1012-.4247-3.0484-.4222z" fill="#224c9a"/>
      <path d="M120.7731 38.355s.9354.9142.094 1.9244c-.8415 1.0103-.8107.9728-.8107.9728l-1.4729.003s2.4022-2.1593 1.9066-2.819c-.4955-.6598.283-.0807.283-.0807z" fill="#3f4b7c"/>
      <path d="M110.9523 39.3704s6.9318.8836 9.1086-.8698c0 0 .4051-.311.7122-.1456 0 0-.7116-1.2325-1.2465-1.2747-.535-.0422-1.4953.1183-2.1417.383-.6465.2646-4.6787 1.8686-6.4326 1.9071z" fill="#d15372"/>
      <path d="M120.2107 44.9816L-10.0248 68.7492c6.2787.2471 15.3123-.0124 15.3123-.0124l33.3933-6.3583c6.9352.5968 12.194-.3716 12.194-.3716l10.343-1.7533 4.2453-2.7487 48.9577-9.8304c2.1011-.5117 4.2526-1.708 5.7899-2.6929z" fill="#253271"/>
      <path d="M53.4855 59.0884l16.4386.4455s18.8672 4.4915 22.9708 3.5273c0 0 1.7306.0285 2.5929-.0321 4.823-.339 13.2448-.5406 14.3863-1.8508l-.043-.4768s-12.5172-.3976-15.0058-2.7274c0 0-11.8051-6.8006-12.1357-7.3437-.3305-.5432-3.9416-.231-6.8065.7806 0 0-20.9225 5.997-22.3977 7.6774z" fill="#e8ecfe"/>
      <path d="M-40.8839 63.7218l-1.6928 7.2456-1.2713 1.742 8.5683-1.744L-23.977 64.3l7.2259-2.9368-.5504-.6891z" fill="#e4eafd"/>
      <path d="M121.9284 36.6757c-.164.024-.3155.0723-.3907.1705-.2045.267.1054 1.0036.1054 1.0036l1.1245-.1752c-.292-.3654-.5882-.711-.8392-.999z" stroke="#000" stroke-width=".2646"/>
    </g>
    <g data-airplane="singapore" opacity="0" transform="translate(149.8235 -138.776)">
      <path d="M-127.5273 180.9252l-22.2962-8.3036s6.7804-1.2843 8.6815-.6712c1.901.6132 22.8086 4.086 22.8086 4.086l5.0962 2.535z" fill="#b4c3d0"/>
      <path d="M-76.45 155.4648l-3.4445 1.6092 7.0013.1238 2.5527 1.0027-3.226 1.4432 6.8792.2397 2.3114.6923-2.944 1.4872 8.1471.7243-2.0797 1.5589 6.4817.3507-.2052-1.434z" fill="#ccc"/>
      <path d="M-30.6917 162.8914s-36.409-6.3266-44.483-10.6313c0 0-22.4022-8.187-25.594-6.7407 0 0 14.388 6.0484 15.9242 7.2961l35.9016 14.8546z" fill="#b8c8d8"/>
      <path d="M-132.3991 181.967l14.9513-3.85-2.8832-1.4143-19.6006-37.9267 12.0288 1.0894s.5869-.091 1.1724.4302c9.803 9.0717 20.561 17.9282 30.8289 26.734 0 0 3.8755 4.7677 10.2533 3.372L28.3938 153.57s9.6014-.2882 12.82 2.3183c0 0 1.6653 1.837 2.004 2.5223l.6746.9346s.5004 1.6249-1.8116 3.8875c0 0-4.0814 3.2428-7.9153 4.1764l-48.9582 9.8303-4.245 2.7485-10.3429 1.7537s-5.2588.9683-12.194.3715l-33.3935 6.3583s-11.697.3359-17.7216-.1206l-39.4953-2.196z" fill="url(#i)"/>
      <path d="M39.1407 160.5027l-161.4589 26.2004 7.6827.4274 153.7762-24.9633z" fill="#2c2f59"/>
      <path d="M3.1738 180.856s1.2261 5.1147 4.3445 5.3277c3.1184.213 3.5393-3.9252 3.5393-3.9252z" opacity=".4884"/>
      <path d="M39.1407 162.1672l-153.819 24.9607 7.6806.4274 146.1384-23.7236z" fill="#b4ae74"/>
      <path d="M18.049 172.0582l-1.6997.1235s-2.8971 2.0393-7.0647 3.4903-.3405 2.7207-.3405 2.7207l-.8506 3.3388 2.9641.5271s-.4209 4.1379-3.5393 3.9249a2.8733 2.8733 0 01-.5126-.0837c.0845.1654.7256 1.0733 4.5046.493 0 0 8.3433-1.3614 11.0231-3.5667 0 0 2.0222-9.153-4.4845-10.9679z" fill="#bcc5c5"/>
      <path d="M16.0336 172.1368c-1.9267-.0573-8.8248 2.3073-8.8248 2.3073l.9022 1.7405c.2904-.1671.6731-.3384 1.1736-.5126 4.1676-1.451 7.0647-3.4903 7.0647-3.4903-.0807-.0268-.1873-.041-.3157-.045z" fill="#e6e6e6"/>
      <path d="M18.049 172.0582c6.5066 1.815 4.4844 10.9678 4.4844 10.9678 1.9205-1.8186 1.9573-3.723 1.157-7.0626-.8002-3.3396-5.6415-3.9052-5.6415-3.9052zm4.4844 10.9678a4.8325 4.8325 0 01-.216.1649 1.3789 1.3789 0 00.216-.1649z" fill="#e6e6e6"/>
      <path d="M-16.1071 178.417l-.8697.4661-2.0609 1.1049 1.139.477 2.5957.007 3.1729.008 2.5104-1.3028 3.8902-.0884-1.1203.802-2.2738 1.6288 2.5689-.1075 2.5507-.1064 1.5002-.7912-2.9756 1.803 1.233.2181 4.7109-.2806.7028-.6356 1.0955-.3881-.3312.2522-2.5146 1.9135 4.0907-.1095 1.8774-.4832.3039-.7131 1.4784-.3731-2.281 2.4107 1.9834-.0816 4.102-.7452 1.2134-.6635-.6439-.7984-12.544-3.3828z" fill="#ccc"/>
      <rect ry=".4586" y="179.8564" x="-78.9535" height="1.586" width=".9173"/>
      <rect width=".9173" height="1.586" x="-78.9535" y="179.8564" ry=".4586"/>
      <rect width=".9173" height="1.586" x="-77.3638" y="179.5851" ry=".4586"/>
      <rect ry=".4586" y="179.5851" x="-77.3638" height="1.586" width=".9173"/>
      <rect ry=".4586" y="179.2846" x="-75.6107" height="1.586" width=".9173"/>
      <rect width=".9173" height="1.586" x="-74.021" y="179.0134" ry=".4586"/>
      <rect ry=".4586" y="178.6767" x="-72.3737" height="1.586" width=".9173"/>
      <rect width=".9173" height="1.586" x="-70.784" y="178.4054" ry=".4586"/>
      <rect width=".9173" height="1.586" x="-69.0309" y="178.1049" ry=".4586"/>
      <rect ry=".4586" y="177.8337" x="-67.4412" height="1.586" width=".9173"/>
      <rect ry=".4586" y="177.6438" x="-66.151" height="1.586" width=".9173"/>
      <rect width=".9173" height="1.586" x="-64.5613" y="177.3725" ry=".4586"/>
      <rect width=".9173" height="1.586" x="-62.8082" y="177.072" ry=".4586"/>
      <rect ry=".4586" y="176.8007" x="-61.2185" height="1.586" width=".9173"/>
      <rect width=".9173" height="1.586" x="-59.5712" y="176.464" ry=".4586"/>
      <rect ry=".4586" y="176.1928" x="-57.9815" height="1.586" width=".9173"/>
      <rect ry=".4586" y="175.8922" x="-56.2284" height="1.586" width=".9173"/>
      <rect width=".9173" height="1.586" x="-54.6387" y="175.621" ry=".4586"/>
      <rect width=".9173" height="1.586" x="-52.9747" y="175.3944" ry=".4586"/>
      <rect ry=".4586" y="175.1231" x="-51.385" height="1.586" width=".9173"/>
      <rect ry=".4586" y="174.8225" x="-49.6319" height="1.586" width=".9173"/>
      <rect width=".9173" height="1.586" x="-48.0422" y="174.5513" ry=".4586"/>
      <rect ry=".4586" y="174.2146" x="-46.3949" height="1.586" width=".9173"/>
      <rect width=".9173" height="1.586" x="-44.8051" y="173.9434" ry=".4586"/>
      <rect width=".9173" height="1.586" x="-43.0521" y="173.6428" ry=".4586"/>
      <rect ry=".4586" y="173.3716" x="-41.4623" height="1.586" width=".9173"/>
      <rect ry=".4586" y="170.9598" x="-27.0049" height="1.586" width=".8639"/>
      <rect width=".8639" height="1.586" x="-25.5077" y="170.6885" ry=".4586"/>
      <rect width=".8639" height="1.586" x="-23.8566" y="170.3879" ry=".4586"/>
      <rect ry=".4586" y="170.1167" x="-22.3593" height="1.586" width=".8639"/>
      <rect width=".8639" height="1.586" x="-20.8078" y="169.78" ry=".4586"/>
      <rect ry=".4586" y="169.5088" x="-19.3106" height="1.586" width=".8639"/>
      <rect ry=".4586" y="169.2082" x="-17.6595" height="1.586" width=".8639"/>
      <rect width=".8639" height="1.586" x="-16.1622" y="168.937" ry=".4586"/>
      <rect width=".8494" height="1.3603" x="-8.231" y="167.7295" ry=".3934"/>
      <rect ry=".3934" y="167.4968" x="-6.7589" height="1.3603" width=".8494"/>
      <rect ry=".3934" y="167.2391" x="-5.1356" height="1.3603" width=".8494"/>
      <rect width=".8494" height="1.3603" x="-3.6635" y="167.0064" ry=".3934"/>
      <rect ry=".3934" y="166.7177" x="-2.1381" height="1.3603" width=".8494"/>
      <rect width=".8494" height="1.3603" x="-.666" y="166.485" ry=".3934"/>
      <rect width=".8494" height="1.3603" x=".9573" y="166.2272" ry=".3934"/>
      <rect ry=".3934" y="165.9946" x="2.4294" height="1.3603" width=".8494"/>
      <rect ry=".4586" y="161.789" x="27.3692" height="1.586" width=".7535"/>
      <rect width=".7535" height="1.586" x="28.6751" y="161.5177" ry=".4586"/>
      <rect width=".7535" height="1.586" x="30.1151" y="161.2172" ry=".4586"/>
      <rect ry=".4586" y="160.9459" x="31.421" height="1.586" width=".7535"/>
      <rect width=".7535" height="1.586" x="32.7741" y="160.6092" ry=".4586"/>
      <rect ry=".4586" y="160.338" x="34.08" height="1.586" width=".7535"/>
      <rect ry=".4586" y="160.0374" x="35.52" height="1.586" width=".7535"/>
      <rect width=".7535" height="1.586" x="36.8258" y="159.7662" ry=".4586"/>
      <rect width=".7535" height="1.586" x="23.3963" y="162.6542" ry=".4586"/>
      <rect ry=".4586" y="162.3829" x="24.7022" height="1.586" width=".7535"/>
      <rect ry=".4586" y="162.0824" x="26.1422" height="1.586" width=".7535"/>
      <path d="M-138.8795 140.812l18.5312 35.8568 23.1566-4.813 5.8689-.9075c-1.6081-.1213-2.8842-.629-4.2567-1.3834l-31.1917-28.1828z" fill="#282b55"/>
      <path d="M-26.7701 178.8228l16.4386.4455s18.8672 4.4915 22.9708 3.5273c0 0 1.7307.0284 2.593-.0322 4.823-.339 13.2447-.5405 14.3862-1.8507l-.043-.4768s-12.5171-.3976-15.0058-2.7275c0 0-11.8051-6.8005-12.1357-7.3436-.3305-.5432-3.9416-.231-6.8065.7806 0 0-20.9225 5.997-22.3976 7.6774z" fill="#e3ebec"/>
      <path d="M41.6728 156.41c-.164.024-.3155.0725-.3907.1706-.2044.267.1054 1.0036.1054 1.0036l1.1245-.1752c-.292-.3654-.5881-.711-.8392-.999z" stroke="#000" stroke-width=".2646"/>
      <g fill="#cec989">
        <path d="M-119.1284 154.8368c2.476 2.416 4.6987 4.618 4.94 4.885.2893.3484.4785.7133.6064 1.1906.2493.93.1112 1.4382-1.5044 5.7416l-1.3153 3.4746-.9658.1973c-.5439.1151-.9665.1464-.9546.0933.012-.053.5215-1.4657 1.1346-3.1254.6098-1.672 1.1518-3.256 1.1988-3.5193.1385-.9938-.0173-1.1854-4.2149-5.2982-2.1432-2.1002-3.9917-3.9295-4.1187-4.062-.1144-.1344-.272-.479-.3474-.7604-.1214-.4528-.0651-.7304.3757-1.8634.2857-.737.5417-1.3413.5792-1.3475.0376-.0062 2.1072 1.9656 4.5864 4.3938z"/>
        <path d="M-122.2755 146.6879l-1.0543 2.9459 9.8421 10.279.3915 2.231-2.6615 7.7845 4.39-.7686 2.2898-5.3284 2.1774-.5502-.6484.9007-2.0028 4.8866-9.5497 1.856 2.7352-7.3336-.4006-1.3044-8.4113-8.0988-1.0226 3.0291 6.9022 7.3849.2106 1.3462-2.8751 7.3353 12.0698-2.1462 1.6353-.5396.7121-1.595 1.9839-4.4251 1.4398-.5781-2.4917-2.4262-3.2536.5828-.8969.8953-1.842 4.5208-.3794.2957-.0802-.1393 2.3083-6.5277.2352-1.5722-.2929-1.1107-.8874-1.5999z"/>
      </g>
      <path d="M-121.1395 183.4563l-1.6928 7.2455-1.2713 1.742 8.5683-1.744 11.3028-6.6654 7.2258-2.9368-.5503-.689z" fill="#dbe5e9"/>
    </g>
    <g data-airplane="lufthansa" opacity="0" transform="translate(365.1221 -78.9199)">
      <path d="M-342.826 121.0691l-22.2961-8.3036s6.7803-1.2843 8.6814-.6712c1.9011.6132 22.8087 4.086 22.8087 4.086l5.0961 2.535z" fill="#8fa0c0"/>
      <path d="M-291.7486 95.6087l-3.4446 1.6092 7.0014.1238 2.5527 1.0027-3.226 1.4432 6.8792.2397 2.3113.6924-2.944 1.4871 8.1472.7244-2.0798 1.5588 6.4818.3507-.2053-1.434z" fill="#ccc"/>
      <path d="M-245.9904 103.0353s-36.409-6.3266-44.483-10.6313c0 0-22.4022-8.187-25.5939-6.7407 0 0 14.388 6.0484 15.9241 7.2961l35.9016 14.8546z" fill="#b0c6e8"/>
      <path d="M-347.6978 122.111l14.9514-3.8501-2.8832-1.4143-19.6007-37.9267 12.0288 1.0894s.587-.091 1.1725.4302c9.803 9.0717 20.5609 17.9282 30.8289 26.734 0 0 3.8755 4.7677 10.2533 3.372l114.042-16.8316s9.6014-.2882 12.82 2.3183c0 0 1.6653 1.837 2.004 2.5223l.6745.9346s.5004 1.6249-1.8115 3.8875c0 0-4.0814 3.2428-7.9154 4.1764l-48.9582 9.8303-4.2449 2.7485-10.343 1.7537s-5.2587.9683-12.194.3715l-33.3934 6.3583s-11.697.336-17.7217-.1206l-39.4953-2.196z" fill="url(#j)"/>
      <path d="M-212.1249 121s1.2262 5.1146 4.3446 5.3276c3.1184.213 3.5392-3.9252 3.5392-3.9252z" opacity=".4884"/>
      <path d="M-197.2497 112.2021l-1.6997.1235s-2.897 2.0393-7.0646 3.4903-.3406 2.7207-.3406 2.7207l-.8506 3.3388 2.9642.5271s-.421 4.138-3.5394 3.9249a2.8734 2.8734 0 01-.5126-.0837c.0845.1654.7256 1.0733 4.5047.493 0 0 8.3432-1.3614 11.023-3.5667 0 0 2.0222-9.153-4.4844-10.9679z" fill="#ebf5fd"/>
      <path d="M-199.2651 112.2807c-1.9267-.0573-8.8248 2.3073-8.8248 2.3073l.9023 1.7405c.2903-.1671.673-.3384 1.1735-.5126 4.1677-1.451 7.0647-3.4903 7.0647-3.4903-.0807-.0268-.1873-.041-.3157-.045z" fill="#becfec"/>
      <path d="M-197.2497 112.2021c6.5066 1.815 4.4845 10.9678 4.4845 10.9678 1.9204-1.8186 1.9572-3.723 1.157-7.0626s-5.6415-3.9052-5.6415-3.9052zm4.4845 10.9678a4.8325 4.8325 0 01-.216.1649 1.3789 1.3789 0 00.216-.1649z" fill="#e6e6e6"/>
      <path d="M-231.4058 118.561l-.8697.466-2.0608 1.1049 1.1389.477 2.5957.007 3.173.008 2.5104-1.3028 3.8902-.0884-1.1204.802-2.2737 1.6288 2.5688-.1074 2.5508-.1065 1.5001-.7912-2.9755 1.803 1.233.2181 4.7108-.2806.7028-.6356 1.0956-.3881-.3313.2522-2.5146 1.9135 4.0907-.1095 1.8774-.4832.304-.7131 1.4784-.3731-2.281 2.4107 1.9833-.0816 4.102-.7452 1.2134-.6635-.6438-.7984-12.544-3.3828z" fill="#ccc"/>
      <rect width=".9173" height="1.586" x="-294.2521" y="120.0003" ry=".4586"/>
      <rect ry=".4586" y="120.0003" x="-294.2521" height="1.586" width=".9173"/>
      <rect ry=".4586" y="119.729" x="-292.6624" height="1.586" width=".9173"/>
      <rect width=".9173" height="1.586" x="-292.6624" y="119.729" ry=".4586"/>
      <rect width=".9173" height="1.586" x="-290.9094" y="119.4285" ry=".4586"/>
      <rect ry=".4586" y="119.1573" x="-289.3196" height="1.586" width=".9173"/>
      <rect width=".9173" height="1.586" x="-287.6723" y="118.8206" ry=".4586"/>
      <rect ry=".4586" y="118.5493" x="-286.0826" height="1.586" width=".9173"/>
      <rect ry=".4586" y="118.2488" x="-284.3295" height="1.586" width=".9173"/>
      <rect width=".9173" height="1.586" x="-282.7398" y="117.9775" ry=".4586"/>
      <rect width=".9173" height="1.586" x="-281.4497" y="117.7877" ry=".4586"/>
      <rect ry=".4586" y="117.5164" x="-279.8599" height="1.586" width=".9173"/>
      <rect ry=".4586" y="117.2159" x="-278.1068" height="1.586" width=".9173"/>
      <rect width=".9173" height="1.586" x="-276.5172" y="116.9446" ry=".4586"/>
      <rect ry=".4586" y="116.6079" x="-274.8698" height="1.586" width=".9173"/>
      <rect width=".9173" height="1.586" x="-273.2801" y="116.3367" ry=".4586"/>
      <rect width=".9173" height="1.586" x="-271.527" y="116.0361" ry=".4586"/>
      <rect ry=".4586" y="115.7649" x="-269.9373" height="1.586" width=".9173"/>
      <rect ry=".4586" y="115.5383" x="-268.2733" height="1.586" width=".9173"/>
      <rect width=".9173" height="1.586" x="-266.6836" y="115.267" ry=".4586"/>
      <rect width=".9173" height="1.586" x="-264.9305" y="114.9664" ry=".4586"/>
      <rect ry=".4586" y="114.6952" x="-263.3408" height="1.586" width=".9173"/>
      <rect width=".9173" height="1.586" x="-261.6935" y="114.3585" ry=".4586"/>
      <rect ry=".4586" y="114.0873" x="-260.1038" height="1.586" width=".9173"/>
      <rect ry=".4586" y="113.7867" x="-258.3507" height="1.586" width=".9173"/>
      <rect width=".9173" height="1.586" x="-256.761" y="113.5155" ry=".4586"/>
      <rect width=".8639" height="1.586" x="-242.3036" y="111.1037" ry=".4586"/>
      <rect ry=".4586" y="110.8324" x="-240.8063" height="1.586" width=".8639"/>
      <rect ry=".4586" y="110.5318" x="-239.1552" height="1.586" width=".8639"/>
      <rect width=".8639" height="1.586" x="-237.658" y="110.2606" ry=".4586"/>
      <rect ry=".4586" y="109.9239" x="-236.1065" height="1.586" width=".8639"/>
      <rect width=".8639" height="1.586" x="-234.6092" y="109.6527" ry=".4586"/>
      <rect width=".8639" height="1.586" x="-232.9581" y="109.3521" ry=".4586"/>
      <rect ry=".4586" y="109.0809" x="-231.4609" height="1.586" width=".8639"/>
      <rect ry=".3934" y="107.8734" x="-223.5296" height="1.3603" width=".8494"/>
      <rect width=".8494" height="1.3603" x="-222.0576" y="107.6407" ry=".3934"/>
      <rect width=".8494" height="1.3603" x="-220.4342" y="107.383" ry=".3934"/>
      <rect ry=".3934" y="107.1503" x="-218.9622" height="1.3603" width=".8494"/>
      <rect width=".8494" height="1.3603" x="-217.4367" y="106.8616" ry=".3934"/>
      <rect ry=".3934" y="106.6289" x="-215.9647" height="1.3603" width=".8494"/>
      <rect ry=".3934" y="106.3712" x="-214.3414" height="1.3603" width=".8494"/>
      <rect width=".8494" height="1.3603" x="-212.8693" y="106.1385" ry=".3934"/>
      <rect width=".7535" height="1.586" x="-187.9294" y="101.9329" ry=".4586"/>
      <rect ry=".4586" y="101.6616" x="-186.6236" height="1.586" width=".7535"/>
      <rect ry=".4586" y="101.3611" x="-185.1835" height="1.586" width=".7535"/>
      <rect width=".7535" height="1.586" x="-183.8777" y="101.0898" ry=".4586"/>
      <rect ry=".4586" y="100.7531" x="-182.5245" height="1.586" width=".7535"/>
      <rect width=".7535" height="1.586" x="-181.2187" y="100.4819" ry=".4586"/>
      <rect width=".7535" height="1.586" x="-179.7787" y="100.1813" ry=".4586"/>
      <rect ry=".4586" y="99.9101" x="-178.4728" height="1.586" width=".7535"/>
      <rect ry=".4586" y="102.7981" x="-191.9023" height="1.586" width=".7535"/>
      <rect width=".7535" height="1.586" x="-190.5965" y="102.5268" ry=".4586"/>
      <rect width=".7535" height="1.586" x="-189.1564" y="102.2263" ry=".4586"/>
      <path d="M-242.0688 118.9667l16.4387.4455s18.8672 4.4915 22.9707 3.5273c0 0 1.7307.0285 2.593-.0321 4.823-.339 13.2447-.5406 14.3863-1.8508l-.0431-.4768s-12.517-.3976-15.0058-2.7275c0 0-11.805-6.8005-12.1356-7.3436-.3306-.5432-3.9417-.231-6.8066.7806 0 0-20.9225 5.997-22.3976 7.6774z" fill="#becfec"/>
      <path d="M-173.6258 96.554c-.164.024-.3155.0724-.3907.1705-.2045.267.1054 1.0036.1054 1.0036l1.1245-.1752c-.292-.3654-.5882-.711-.8392-.999z" stroke="#000" stroke-width=".2646"/>
      <path d="M-355.23 78.9201l19.6003 37.9264 2.8835 1.4143-3.9186 1.0093 4.3444 7.8719 24.3319 1.3529c3.7394.2833 9.6575.261 13.6141.2036 0 0-4.81-6.801-7.7488-9.723-2.8753-2.8588-9.5558-7.5263-9.5558-7.5263l-31.543-31.4418z" fill="#29293d"/>
      <path d="M-336.4381 123.6002l-1.6929 7.2455-1.2713 1.742 8.5683-1.744 11.3028-6.6653 7.2258-2.9369-.5503-.689z" fill="#c6d4ed"/>
      <path d="M-334.2303 93.652c3.9864 0 7.2088 3.2224 7.2088 7.2089 0 3.9864-3.2224 7.2088-7.2088 7.2088-3.9865 0-7.2088-3.2224-7.2088-7.2088 0-3.9865 3.2223-7.2088 7.2088-7.2088" fill="#fff"/>
      <path d="M-334.2303 107.6371c3.7413 0 6.7762-3.0349 6.7762-6.7762 0-3.7414-3.0349-6.7763-6.7762-6.7763-3.7414 0-6.7763 3.0349-6.7763 6.7763 0 3.7413 3.035 6.7762 6.7763 6.7762" fill="#29293d"/>
      <path d="M-337.0256 99.4274c.0548 0 .101.001.1269.004.0304.0548.075.1283.1413.2307-1.0322 0-1.9692.085-3.0057.271l.2926.2825c.9356-.1658 1.7126-.232 2.703-.232.1441 0 .1744 0 .209.001.0346.0519.1124.1528.1903.2465-.088-.005-.258-.009-.493-.009-.8145 0-1.5757.0606-2.4017.1931l.2927.284c.6285-.098 1.3969-.1542 2.086-.1542.245 0 .5232.009.7726.023.0562.0649.2032.2235.248.2725-.3302-.0346-.6935-.0504-1.126-.0504-.6155 0-1.2037.0404-1.76.1225l.2926.2811c.3964-.049.8779-.0779 1.3031-.0779 1.097 0 1.962.2378 2.8558.7842-.852.914-2.2474 1.492-3.5996 1.492h-.1269l.4728.457c1.9505-.3661 4.0033-1.2239 5.7375-2.3988 1.668-1.1258 2.2517-1.4588 3.5535-2.034l.009-.3345-.8808.3777-.2999-.2378-2.8759 1.3176.1874.1499 1.4762-.6415.1456.114-.767.428c-.6472.3605-1.1402.522-1.5958.522-.9961 0-1.8899-.7064-2.4665-1.9476-.4339-.0562-.8967-.0822-1.453-.0822-1.1418 0-2.2504.1095-3.506.3445l.3056.2955c.7813-.1629 2.109-.2955 2.9567-.2955" fill="#fff"/>
    </g>
    <g data-airplane="emirates" opacity="0" transform="translate(-378.289 -191.7412)">
      <path d="M400.5853 233.8905l-22.2962-8.3037s6.7803-1.2843 8.6814-.6711c1.9011.6132 22.8087 4.086 22.8087 4.086l5.0961 2.535z" fill="#b4c3d0"/>
      <path d="M451.6626 208.43l-3.4446 1.6092 7.0014.1238 2.5527 1.0027-3.226 1.4432 6.8792.2398 2.3114.6923-2.944 1.4872 8.1471.7243-2.0798 1.5588 6.4818.3508-.2052-1.434z" fill="#ccc"/>
      <path d="M497.4208 215.8566s-36.409-6.3266-44.483-10.6312c0 0-22.4022-8.187-25.5938-6.7408 0 0 14.3879 6.0485 15.924 7.2961l35.9017 14.8546z" fill="#b8c8d8"/>
      <path d="M395.7134 234.9323l14.9514-3.85-2.8832-1.4143-19.6006-37.9268 12.0288 1.0894s.5869-.0909 1.1724.4302c9.803 9.0717 20.561 17.9283 30.8289 26.734 0 0 3.8755 4.7678 10.2533 3.372l114.042-16.8315s9.6014-.2882 12.82 2.3182c0 0 1.6653 1.837 2.004 2.5223l.6746.9347s.5004 1.6248-1.8116 3.8874c0 0-4.0814 3.2428-7.9154 4.1764l-48.9581 9.8303-4.245 2.7485-10.343 1.7537s-5.2587.9684-12.194.3715l-33.3934 6.3583s-11.697.336-17.7217-.1206l-39.4953-2.196z" fill="url(#k)"/>
      <path d="M531.2864 233.8212s1.226 5.1147 4.3445 5.3277c3.1184.213 3.5393-3.9252 3.5393-3.9252z" opacity=".4884"/>
      <path d="M546.1615 225.0235l-1.6996.1235s-2.8971 2.0392-7.0647 3.4902-.3406 2.7208-.3406 2.7208l-.8506 3.3388 2.9642.527s-.421 4.138-3.5393 3.9249a2.8734 2.8734 0 01-.5127-.0837c.0845.1654.7257 1.0733 4.5047.493 0 0 8.3433-1.3614 11.023-3.5667 0 0 2.0223-9.1529-4.4844-10.9678z" fill="#bcc5c5"/>
      <path d="M544.1461 225.102c-1.9267-.0573-8.8248 2.3074-8.8248 2.3074l.9023 1.7404c.2904-.1671.6731-.3384 1.1736-.5126 4.1676-1.451 7.0647-3.4902 7.0647-3.4902-.0807-.0268-.1873-.0411-.3158-.045z" fill="#e6e6e6"/>
      <path d="M546.1615 225.0235c6.5067 1.8149 4.4845 10.9678 4.4845 10.9678 1.9205-1.8187 1.9572-3.723 1.157-7.0627-.8002-3.3396-5.6415-3.9051-5.6415-3.9051zm4.4845 10.9678a4.8325 4.8325 0 01-.216.1648 1.3789 1.3789 0 00.216-.1648z" fill="#e6e6e6"/>
      <path d="M512.0054 231.3822l-.8697.4662-2.0608 1.1048 1.139.477 2.5956.007 3.173.008 2.5104-1.3028 3.8902-.0884-1.1203.802-2.2738 1.6289 2.5688-.1075 2.5508-.1065 1.5001-.7911-2.9755 1.803 1.233.218 4.7108-.2806.7028-.6356 1.0956-.388-.3313.2521-2.5145 1.9136 4.0907-.1096 1.8774-.4831.3038-.7132 1.4785-.373-2.281 2.4106 1.9833-.0816 4.1021-.7452 1.2134-.6635-.644-.7984-12.5439-3.3827z" fill="#ccc"/>
      <rect width=".9173" height="1.586" x="449.1591" y="232.8217" ry=".4586"/>
      <rect ry=".4586" y="232.8217" x="449.1591" height="1.586" width=".9173"/>
      <rect ry=".4586" y="232.5504" x="450.7488" height="1.586" width=".9173"/>
      <rect width=".9173" height="1.586" x="450.7488" y="232.5504" ry=".4586"/>
      <rect width=".9173" height="1.586" x="452.5019" y="232.2499" ry=".4586"/>
      <rect ry=".4586" y="231.9786" x="454.0916" height="1.586" width=".9173"/>
      <rect width=".9173" height="1.586" x="455.7389" y="231.6419" ry=".4586"/>
      <rect ry=".4586" y="231.3707" x="457.3286" height="1.586" width=".9173"/>
      <rect ry=".4586" y="231.0701" x="459.0817" height="1.586" width=".9173"/>
      <rect width=".9173" height="1.586" x="460.6714" y="230.7989" ry=".4586"/>
      <rect width=".9173" height="1.586" x="461.9616" y="230.609" ry=".4586"/>
      <rect ry=".4586" y="230.3377" x="463.5513" height="1.586" width=".9173"/>
      <rect ry=".4586" y="230.0372" x="465.3043" height="1.586" width=".9173"/>
      <rect width=".9173" height="1.586" x="466.8941" y="229.7659" ry=".4586"/>
      <rect ry=".4586" y="229.4293" x="468.5414" height="1.586" width=".9173"/>
      <rect width=".9173" height="1.586" x="470.1311" y="229.158" ry=".4586"/>
      <rect width=".9173" height="1.586" x="471.8842" y="228.8575" ry=".4586"/>
      <rect ry=".4586" y="228.5862" x="473.4739" height="1.586" width=".9173"/>
      <rect ry=".4586" y="228.3596" x="475.1379" height="1.586" width=".9173"/>
      <rect width=".9173" height="1.586" x="476.7276" y="228.0883" ry=".4586"/>
      <rect width=".9173" height="1.586" x="478.4807" y="227.7878" ry=".4586"/>
      <rect ry=".4586" y="227.5165" x="480.0704" height="1.586" width=".9173"/>
      <rect width=".9173" height="1.586" x="481.7177" y="227.1799" ry=".4586"/>
      <rect ry=".4586" y="226.9086" x="483.3074" height="1.586" width=".9173"/>
      <rect ry=".4586" y="226.6081" x="485.0605" height="1.586" width=".9173"/>
      <rect width=".9173" height="1.586" x="486.6502" y="226.3368" ry=".4586"/>
      <rect width=".8639" height="1.586" x="501.1076" y="223.925" ry=".4586"/>
      <rect ry=".4586" y="223.6537" x="502.6049" height="1.586" width=".8639"/>
      <rect ry=".4586" y="223.3532" x="504.256" height="1.586" width=".8639"/>
      <rect width=".8639" height="1.586" x="505.7532" y="223.0819" ry=".4586"/>
      <rect ry=".4586" y="222.7453" x="507.3048" height="1.586" width=".8639"/>
      <rect width=".8639" height="1.586" x="508.802" y="222.474" ry=".4586"/>
      <rect width=".8639" height="1.586" x="510.4531" y="222.1735" ry=".4586"/>
      <rect ry=".4586" y="221.9022" x="511.9504" height="1.586" width=".8639"/>
      <rect ry=".3934" y="220.6947" x="519.8816" height="1.3603" width=".8494"/>
      <rect width=".8494" height="1.3603" x="521.3536" y="220.4621" ry=".3934"/>
      <rect width=".8494" height="1.3603" x="522.977" y="220.2043" ry=".3934"/>
      <rect ry=".3934" y="219.9717" x="524.449" height="1.3603" width=".8494"/>
      <rect width=".8494" height="1.3603" x="525.9745" y="219.6829" ry=".3934"/>
      <rect ry=".3934" y="219.4502" x="527.4465" height="1.3603" width=".8494"/>
      <rect ry=".3934" y="219.1925" x="529.0699" height="1.3603" width=".8494"/>
      <rect width=".8494" height="1.3603" x="530.5419" y="218.9598" ry=".3934"/>
      <rect width=".7535" height="1.586" x="555.4818" y="214.7542" ry=".4586"/>
      <rect ry=".4586" y="214.4829" x="556.7877" height="1.586" width=".7535"/>
      <rect ry=".4586" y="214.1824" x="558.2277" height="1.586" width=".7535"/>
      <rect width=".7535" height="1.586" x="559.5335" y="213.9111" ry=".4586"/>
      <rect ry=".4586" y="213.5745" x="560.8867" height="1.586" width=".7535"/>
      <rect width=".7535" height="1.586" x="562.1925" y="213.3032" ry=".4586"/>
      <rect width=".7535" height="1.586" x="563.6326" y="213.0027" ry=".4586"/>
      <rect ry=".4586" y="212.7314" x="564.9384" height="1.586" width=".7535"/>
      <rect ry=".4586" y="215.6195" x="551.5089" height="1.586" width=".7535"/>
      <rect width=".7535" height="1.586" x="552.8148" y="215.3482" ry=".4586"/>
      <rect width=".7535" height="1.586" x="554.2548" y="215.0477" ry=".4586"/>
      <path d="M501.3424 231.788l16.4387.4455s18.8672 4.4915 22.9707 3.5274c0 0 1.7307.0284 2.593-.0322 4.823-.339 13.2447-.5405 14.3863-1.8508l-.043-.4768s-12.5172-.3976-15.0058-2.7274c0 0-11.8051-6.8005-12.1357-7.3437-.3306-.5431-3.9416-.231-6.8065.7806 0 0-20.9225 5.997-22.3977 7.6774z" fill="#e3ebec"/>
      <path d="M569.7854 209.3753c-.164.024-.3155.0724-.3907.1705-.2045.267.1054 1.0036.1054 1.0036l1.1245-.1752c-.292-.3654-.5882-.711-.8392-.9989z" stroke="#000" stroke-width=".2646"/>
      <path d="M406.973 236.4215l-1.6927 7.2456-1.2713 1.742 8.5682-1.744 11.3028-6.6654 7.2259-2.9368-.5504-.6892z" fill="#dbe5e9"/>
      <path d="M389.2504 193.8112l18.5312 35.8567 23.1566-4.813 5.869-.9074c-1.6082-.1213-2.8843-.629-4.2567-1.3834l-31.1918-28.1829z" fill="url(#l)"/>
      <path d="M390.0676 195.3914l5.6917 11.0138 5.9774 2.8432 16.0109 6.1066-6.4916-8.5426s-14.366-6.5032-17.2744-8.6108c-.6498-.471-2.3822-1.712-3.914-2.8102z" fill="#50824c"/>
      <path d="M456.575 237.6447s-6.3219.1776-9.3853-.4767c-4.548-.9714-8.7455-3.185-13.0074-5.0465-1.2648-.5524-2.6171-.987-3.722-1.814-9.0782-6.7962-22.9163-25.1446-22.9163-25.1446l3.7119 1.6494 6.5988 3.5525s9.512 8.8407 14.5446 12.936c4.0914 3.3293 8.1266 6.8122 12.7001 9.4401 3.6069 2.0724 11.4757 4.9038 11.4757 4.9038z" fill="#923e4a"/>
      <path d="M399.62 213.875l4.546 8.7964.9555.339 15.0228 3.6866 9.2904 2.8076c-2.5195-2.0384-5.3294-4.8234-8.076-7.7866l-17.54-5.7382z" fill="#282b2b"/>
    </g>
    <g data-airplane="qatar" opacity="0" transform="translate(456.7185 -197.2397)">
      <path d="M-434.4223 239.389l-22.2962-8.3036s6.7803-1.2844 8.6814-.6712c1.9011.6132 22.8087 4.086 22.8087 4.086l5.0961 2.535z" fill="#b4c3d0"/>
      <path d="M-383.345 213.9286l-3.4446 1.6091 7.0014.1238 2.5527 1.0028-3.226 1.4432 6.8792.2397 2.3113.6923-2.944 1.4872 8.1472.7243-2.0798 1.5588 6.4818.3508-.2053-1.434z" fill="#ccc"/>
      <path d="M-337.5868 221.3552s-36.409-6.3267-44.483-10.6313c0 0-22.4022-8.187-25.5939-6.7407 0 0 14.388 6.0484 15.9241 7.296l35.9016 14.8546z" fill="#b8c8d8"/>
      <path d="M-439.2942 240.4308l14.9514-3.85-2.8832-1.4143-19.6007-37.9268 12.0288 1.0894s.587-.0909 1.1725.4302c9.803 9.0718 20.5609 17.9283 30.8289 26.734 0 0 3.8755 4.7678 10.2533 3.372l114.042-16.8315s9.6014-.2882 12.82 2.3182c0 0 1.6653 1.837 2.004 2.5223l.6745.9347s.5004 1.6248-1.8115 3.8875c0 0-4.0814 3.2427-7.9154 4.1763l-48.9582 9.8303-4.2449 2.7485-10.343 1.7538s-5.2587.9683-12.194.3714l-33.3934 6.3583s-11.6971.336-17.7217-.1206l-39.4953-2.196z" fill="#e2e7e7"/>
      <path d="M-303.7213 239.3198s1.2262 5.1146 4.3446 5.3277c3.1184.213 3.5393-3.9253 3.5393-3.9253z" opacity=".4884"/>
      <path d="M-288.8461 230.522l-1.6997.1235s-2.897 2.0392-7.0646 3.4902-.3406 2.7208-.3406 2.7208l-.8506 3.3388 2.9642.527s-.421 4.138-3.5393 3.925a2.8734 2.8734 0 01-.5127-.0838c.0845.1654.7256 1.0734 4.5047.493 0 0 8.3432-1.3614 11.023-3.5667 0 0 2.0223-9.1529-4.4844-10.9678z" fill="#bcc5c5"/>
      <path d="M-290.8615 230.6005c-1.9267-.0573-8.8248 2.3074-8.8248 2.3074l.9023 1.7404c.2903-.167.673-.3383 1.1735-.5126 4.1676-1.451 7.0647-3.4902 7.0647-3.4902-.0807-.0268-.1873-.0411-.3157-.045z" fill="#e6e6e6"/>
      <path d="M-1051.0195 801.3594c-1.0161.0105-1.584.0273-1.584.0273l-431.0235 63.6172c-24.1051 5.275-34.5382-11.56-34.5382-11.56-8.4498-7.2466-112.3806-95.3963-120.9497-102.6675l4.5533 92.6636 19.8491 45.3782 10.8971 5.3452-56.5088 14.5514.8086 15.8281 104.2109 5.793 555.2891-93.3184c7.7197-8.0806 5.9902-13.8027 5.9902-13.8027l-2.5508-3.5332c-1.2802-2.59-7.5742-9.5332-7.5742-9.5332-10.6439-8.6197-39.7569-8.8629-46.8691-8.789z" transform="scale(.26458)" fill="url(#m)"/>
      <path d="M-288.8461 230.522c6.5066 1.815 4.4845 10.9678 4.4845 10.9678 1.9204-1.8187 1.9572-3.723 1.157-7.0626-.8002-3.3397-5.6415-3.9052-5.6415-3.9052zm4.4845 10.9678a4.8325 4.8325 0 01-.216.1648 1.3789 1.3789 0 00.216-.1648z" fill="#e6e6e6"/>
      <path d="M-323.0022 236.8808l-.8697.466-2.0608 1.105 1.1389.4769 2.5957.007 3.173.008 2.5104-1.3028 3.8902-.0884-1.1204.802-2.2737 1.6289 2.5688-.1075 2.5508-.1064 1.5001-.7912-2.9755 1.803 1.233.218 4.7108-.2805.7028-.6357 1.0956-.388-.3313.2521-2.5146 1.9136 4.0907-.1095 1.8775-.4832.3038-.7132 1.4785-.373-2.281 2.4106 1.9833-.0816 4.102-.7451 1.2135-.6636-.644-.7984-12.5439-3.3827z" fill="#ccc"/>
      <rect width=".9173" height="1.586" x="-385.8485" y="238.3202" ry=".4586"/>
      <rect ry=".4586" y="238.3202" x="-385.8485" height="1.586" width=".9173"/>
      <rect ry=".4586" y="238.0489" x="-384.2588" height="1.586" width=".9173"/>
      <rect width=".9173" height="1.586" x="-384.2588" y="238.0489" ry=".4586"/>
      <rect width=".9173" height="1.586" x="-382.5058" y="237.7484" ry=".4586"/>
      <rect ry=".4586" y="237.4771" x="-380.916" height="1.586" width=".9173"/>
      <rect width=".9173" height="1.586" x="-379.2687" y="237.1405" ry=".4586"/>
      <rect ry=".4586" y="236.8692" x="-377.679" height="1.586" width=".9173"/>
      <rect ry=".4586" y="236.5687" x="-375.9259" height="1.586" width=".9173"/>
      <rect width=".9173" height="1.586" x="-374.3362" y="236.2974" ry=".4586"/>
      <rect width=".9173" height="1.586" x="-373.046" y="236.1075" ry=".4586"/>
      <rect ry=".4586" y="235.8362" x="-371.4563" height="1.586" width=".9173"/>
      <rect ry=".4586" y="235.5357" x="-369.7033" height="1.586" width=".9173"/>
      <rect width=".9173" height="1.586" x="-368.1136" y="235.2645" ry=".4586"/>
      <rect ry=".4586" y="234.9278" x="-366.4662" height="1.586" width=".9173"/>
      <rect width=".9173" height="1.586" x="-364.8765" y="234.6565" ry=".4586"/>
      <rect width=".9173" height="1.586" x="-363.1234" y="234.356" ry=".4586"/>
      <rect ry=".4586" y="234.0848" x="-361.5337" height="1.586" width=".9173"/>
      <rect ry=".4586" y="233.8581" x="-359.8697" height="1.586" width=".9173"/>
      <rect width=".9173" height="1.586" x="-358.28" y="233.5868" ry=".4586"/>
      <rect width=".9173" height="1.586" x="-356.5269" y="233.2863" ry=".4586"/>
      <rect ry=".4586" y="233.015" x="-354.9372" height="1.586" width=".9173"/>
      <rect width=".9173" height="1.586" x="-353.2899" y="232.6784" ry=".4586"/>
      <rect ry=".4586" y="232.4071" x="-351.7002" height="1.586" width=".9173"/>
      <rect ry=".4586" y="232.1066" x="-349.9471" height="1.586" width=".9173"/>
      <rect width=".9173" height="1.586" x="-348.3574" y="231.8353" ry=".4586"/>
      <rect width=".8639" height="1.586" x="-333.9" y="229.4235" ry=".4586"/>
      <rect ry=".4586" y="229.1522" x="-332.4027" height="1.586" width=".8639"/>
      <rect ry=".4586" y="228.8517" x="-330.7516" height="1.586" width=".8639"/>
      <rect width=".8639" height="1.586" x="-329.2544" y="228.5804" ry=".4586"/>
      <rect ry=".4586" y="228.2438" x="-327.7029" height="1.586" width=".8639"/>
      <rect width=".8639" height="1.586" x="-326.2056" y="227.9725" ry=".4586"/>
      <rect width=".8639" height="1.586" x="-324.5545" y="227.672" ry=".4586"/>
      <rect ry=".4586" y="227.4007" x="-323.0573" height="1.586" width=".8639"/>
      <rect ry=".3934" y="226.1933" x="-315.126" height="1.3603" width=".8494"/>
      <rect width=".8494" height="1.3603" x="-313.654" y="225.9606" ry=".3934"/>
      <rect width=".8494" height="1.3603" x="-312.0306" y="225.7028" ry=".3934"/>
      <rect ry=".3934" y="225.4702" x="-310.5586" height="1.3603" width=".8494"/>
      <rect width=".8494" height="1.3603" x="-309.0332" y="225.1814" ry=".3934"/>
      <rect ry=".3934" y="224.9488" x="-307.5611" height="1.3603" width=".8494"/>
      <rect ry=".3934" y="224.691" x="-305.9377" height="1.3603" width=".8494"/>
      <rect width=".8494" height="1.3603" x="-304.4657" y="224.4584" ry=".3934"/>
      <rect width=".7535" height="1.586" x="-279.5258" y="220.2527" ry=".4586"/>
      <rect ry=".4586" y="219.9814" x="-278.22" height="1.586" width=".7535"/>
      <rect ry=".4586" y="219.6809" x="-276.7799" height="1.586" width=".7535"/>
      <rect width=".7535" height="1.586" x="-275.4741" y="219.4096" ry=".4586"/>
      <rect ry=".4586" y="219.073" x="-274.1209" height="1.586" width=".7535"/>
      <rect width=".7535" height="1.586" x="-272.8151" y="218.8017" ry=".4586"/>
      <rect width=".7535" height="1.586" x="-271.3751" y="218.5012" ry=".4586"/>
      <rect ry=".4586" y="218.2299" x="-270.0692" height="1.586" width=".7535"/>
      <rect ry=".4586" y="221.118" x="-283.4987" height="1.586" width=".7535"/>
      <rect width=".7535" height="1.586" x="-282.1929" y="220.8467" ry=".4586"/>
      <rect width=".7535" height="1.586" x="-280.7528" y="220.5462" ry=".4586"/>
      <path d="M-333.6652 237.2866l16.4387.4454s18.8672 4.4915 22.9707 3.5274c0 0 1.7307.0284 2.593-.0322 4.823-.339 13.2447-.5405 14.3863-1.8508l-.0431-.4768s-12.517-.3975-15.0058-2.7274c0 0-11.805-6.8005-12.1356-7.3437-.3306-.5431-3.9416-.231-6.8065.7806 0 0-20.9226 5.997-22.3977 7.6775z" fill="#b8c8d8"/>
      <path d="M-265.2222 214.8738c-.164.024-.3155.0724-.3907.1706-.2045.267.1054 1.0035.1054 1.0035l1.1245-.1751c-.292-.3655-.5882-.711-.8392-.999z" stroke="#000" stroke-width=".2646"/>
      <path d="M-428.0345 241.92l-1.6929 7.2456-1.2713 1.742 8.5683-1.744 11.3028-6.6654 7.2258-2.9368-.5503-.6891z" fill="#dbe5e9"/>
      <path d="M-445.7572 199.3097l18.5312 35.8568 23.1566-4.813 5.8689-.9075c-1.6081-.1213-2.8842-.629-4.2567-1.3834l-31.1917-28.1829z" fill="#c2cccd"/>
      <g>
        <path d="M-347.5192 606.8914l-230.5339.5094-121.7638-270.6466 116.7275 33.5582z" fill="#7e2b49" stroke="#000" stroke-width=".2646" transform="matrix(.11384 -.01567 0 .11384 -363.5095 152.5575)"/>
        <path d="M-428.905 229.5927c.4578.0013.9036.0082.988.0087.277.01.1566.123-.3012.2784-.4298.1434-1.3093.3689-1.3574.3474-.0322-.0157-.3213-.5582-.3213-.6024 0-.032.1807-.0369.992-.032z" fill="#c2cccd"/>
        <path d="M-430.8407 226.4054c.2209-.0063.7189-.0307 1.1044-.0516 1.984-.1043 2.7871-.0944 2.763.0334-.024.1158-.4297.2479-1.9397.6163-.8554.2101-2 .452-2.0361.4329-.0482-.0215-.4739-.8826-.4739-.9549 0-.0442.0803-.0552.5823-.0761z" fill="#c2cccd"/>
        <path d="M-432.0856 223.3238c.3333-.0258 1.1003-.0872 1.7068-.1345.6064-.0513 1.3654-.0996 1.6867-.1076.5823-.016 1.4778.0295 1.538.0814.1728.149-1.261.5551-3.3452.9464-.474.0893-1.0964.211-1.3775.2739-.494.1041-.5903.1134-.5903.037 0-.016-.1085-.246-.241-.509-.1325-.2628-.241-.4848-.241-.4929 0-.024.1888-.046.8635-.0947z" fill="#c2cccd"/>
        <path d="M-439.3505 209.0629c.3734.1052.8875.2513 1.1405.325.253.0736.7229.2057 1.0442.298.3212.0923.6546.191.743.219.2007.0648 1.5019.476 1.8392.5862.3494.1126 1.3655.4507 1.9197.6354.8955.3025 2.3132.8262 2.6104.962.4618.2176 1.6786.7409 1.9236.8317.4659.1688 1.7229.799 2.2208 1.108.1245.0792.257.1975.2932.2648.0643.1117.0643.1197-.024.2001-.0724.0702-.1647.095-.5382.1464-.245.0337-1.0241.169-1.731.2984-.7067.1294-1.6906.305-2.1886.3856-1.008.1628-1.7992.3239-1.8393.3696-.0482.0548.1606.3473.3855.5373.3454.2898 1.1084.5582 1.8032.6313.2851.033.514.0216 1.1967-.0603.9317-.1081 1.0241-.0968 1.0241.104 0 .1607-.1847.4512-.526.8315-.7712.853-1.1808 1.2106-1.9599 1.7154-.4337.2846-1.4859.9073-1.8714 1.105-.1767.0925-1.8715.7555-1.984.779-.0883.0162-.1405-.073-.6144-1.0359a261.2718 261.2718 0 00-.6907-1.411c-.1004-.195-.245-.4923-.3253-.658a530.412 530.412 0 01-.8313-1.6927c-.1325-.271-.2932-.5902-.3534-.7144a267.068 267.068 0 00-.4619-.9405c-.1927-.3951-.502-1.0192-.6827-1.392a83.2956 83.2956 0 00-.4538-.9214c-.0642-.1357-.3293-.6775-.5903-1.2039-.257-.5268-.5502-1.117-.6466-1.3126-.0964-.1915-.1767-.3572-.1767-.3612 0-.012-.3574-.7299-.3896-.7817-.0361-.0552.0723-.03.735.1519z" fill="#c2cccd"/>
        <path d="M-441.0453 204.6938c2.5622.9566 3.9678 1.5463 6.1284 2.5863.771.3717 2.2008 1.0585 2.9317 1.4037 1.02.486 1.6224.7526 2.1043.9393 1.0281.3966 3.1205 1.3215 4.0642 1.798.8755.4418 2.498 1.3189 2.6787 1.4426.2168.1509.241.24.0803.262-.1566.0175-.3615-.0547-.8875-.3276-.9237-.4713-2.763-1.3105-3.6546-1.6617-.9598-.382-2.7148-1.0039-3.5822-1.27-.1888-.0584-.486-.15-.6627-.21-.7349-.2402-2.7389-.8038-3.4537-.9705-.1968-.0492-.5502-.133-.7831-.1934a21.4632 21.4632 0 00-.5221-.129c-.0562-.0123-.3092-.0658-.5622-.1234a59.7527 59.7527 0 00-1.0844-.2322c-1.4096-.296-2.502-.5192-2.518-.517-.008.0012-.0482-.0696-.0883-.1605a12.148 12.148 0 00-.2169-.44c-.0763-.1542-.241-.493-.3695-.7523-.1285-.2595-.3373-.6926-.4698-.9595-.1326-.2709-.2892-.5826-.3414-.696-.0562-.1127-.1084-.218-.1205-.2364-.008-.015-.004-.0275.012-.0297.0161-.0022.6105.2131 1.3173.4773z" fill="#c2cccd"/>
        <path d="M-435.941 200.1601c1.5301-.1825 1.771-.1996 2.1084-.1737.739.063 1.2851.2127 1.8273.4995.4136.2202.5863.357 1.4698 1.1792.4016.3745 1.016.9405 1.3574 1.259.3454.3179 1.1888 1.0934 1.8715 1.7303.6867.6324 1.7148 1.5833 2.289 2.1147a742.423 742.423 0 012.2691 2.0973c.6747.622 1.6948 1.5659 2.269 2.0973 1.1566 1.0657 2.5502 2.3598 3.5341 3.2686.3494.3254.9478.8775 1.3253 1.2232.3775.3456.9638.8874 1.3052 1.2059a1982.7581 1982.7581 0 003.2128 2.9714c.3855.3566.9839.9047 1.3252 1.2232.3414.3185.9317.8597 1.3052 1.2059.3775.3456 1.3896 1.2826 2.253 2.0794.8594.7974 1.9397 1.7973 2.3975 2.2202.4578.419.8313.7812.8313.7972 0 .0161-4.7147.681-10.4817 1.4747-5.7629.7931-10.4817 1.4264-10.4817 1.4104 0-.0362.265-.4662.6024-.9745.2892-.4293.5582-.868.8835-1.4187.3775-.6463.5382-.8933 1.0281-1.5873.0884-.1246.237-.2936.3334-.3751.1606-.1346.1967-.1476.518-.1878.2932-.0363.478-.0256 1.1606.0732.8153.1167 1.241.1304 1.514.0406.2932-.0965.1486-.2212-.5582-.4934-.7028-.2688-1.0963-.4756-1.5662-.8166-1.024-.7385-1.6265-1.5833-1.9236-2.699-.237-.867-.1848-2.2356.1405-3.8426.0562-.2888.0964-.2703.237.1.253.672.6184 1.2441.9076 1.4252.0763.0497.1486.08.1566.0668.012-.0097 0-.1687-.02-.3547-.1166-.996.032-2.0284.4216-2.8853.2008-.4412.4618-.694.4618-.441 0 .1405.2731 1.384.3333 1.5244.0482.1018.0964.1433.217.1629.2369.0437.4095.1364.7107.38.743.6086 1.0201 1.3014.51 1.2792-.0803-.005-.289-.0485-.4618-.101-.1767-.052-.3253-.0838-.3373-.0741-.008.0091.004.0516.024.089.0242.0369.0804.2099.1246.3765.1526.5854.7148 2.1345 1.0602 2.9263.3655.8412 1.016 2.0448 1.4698 2.7173.3093.4595.4498.6168.8595.9861.5542.498.8554.6694 1.4899.8512.498.1443.6305.1381.8715-.0597.3935-.3112 1.6425-1.7682 1.6425-1.9128 0-.02-.0683-.0468-.1486-.0639-.5301-.0957-.996-.4894-1.0763-.904-.0442-.2188.0683-.2062.4538.054.3334.2232.755.362 1.02.3255.498-.0646.731-.45.5101-.8533-.0482-.0858-.3052-.46-.5743-.8326-.269-.3726-.526-.7268-.5702-.793-.0402-.0628-.229-.3059-.4177-.537-.1888-.231-.3735-.4706-.4096-.5339-.0362-.0633-.1205-.152-.1848-.2035-.0682-.0468-.253-.2423-.4176-.4284-.9197-1.0662-2.0642-2.222-2.9036-2.9337-.3454-.2938-.7068-.6176-.7992-.7213-.0883-.1003-.4779-.4362-.8594-.7452-.6626-.5313-1.032-.8097-1.9839-1.502-.2289-.1653-.4658-.3536-.5341-.4124-.1004-.0946-1.016-.7076-1.9357-1.2959-.1406-.089-.253-.174-.253-.194 0-.0161-.0361-.0392-.0843-.0447-.0442-.01-.241-.1114-.4297-.23-.1928-.118-.474-.2841-.6306-.367-.1526-.0834-.3333-.2031-.4016-.266-.0642-.0635-.2168-.163-.3373-.2227-.3534-.1802-1.7871-.991-2.3534-1.3307-.2851-.1736-.6224-.352-.747-.3992-.1244-.043-.3413-.1538-.4819-.2429-.2931-.1885-.3975-.2424-1.4818-.788-.4298-.218-.9318-.4701-1.1165-.5652-.8875-.4561-3.0802-1.4395-4.9878-2.2372-1.004-.424-3.8072-1.4117-4.5783-1.6189-.3694-.0977-1.4698-.4-2.1083-.5732-.3293-.0913-.6828-.1832-.7791-.202-.1687-.037-.1808-.0555-.3856-.457-.1164-.229-.253-.5033-.3012-.6051-.0482-.1059-.1686-.3463-.265-.5419-.0964-.1955-.1767-.3612-.1767-.3692 0-.0241 5.6745-.7569 7.9315-1.0233z" fill="#c2cccd"/>
      </g>
    </g>
    <g data-airplane="cathay-pacific" opacity="0" transform="translate(458.6335 -301.0058)">
      <path d="M-436.3373 343.1551l-22.2962-8.3036s6.7804-1.2844 8.6815-.6712c1.9011.6132 22.8087 4.086 22.8087 4.086l5.0961 2.535z" fill="#b4c3d0"/>
      <path d="M-385.26 317.6947l-3.4445 1.6091 7.0014.1238 2.5527 1.0028-3.226 1.4432 6.8792.2397 2.3113.6923-2.944 1.4872 8.1472.7243-2.0798 1.5588 6.4818.3508-.2053-1.434z" fill="#ccc"/>
      <path d="M-339.5017 325.1213s-36.409-6.3267-44.483-10.6313c0 0-22.4022-8.187-25.5939-6.7408 0 0 14.388 6.0485 15.9241 7.2962l35.9016 14.8545z" fill="#b8c8d8"/>
      <path d="M-441.2091 344.197l14.9514-3.8502-2.8832-1.4142-19.6007-37.9268 12.0288 1.0894s.587-.0909 1.1725.4302c9.8029 9.0717 20.5609 17.9283 30.8288 26.734 0 0 3.8756 4.7678 10.2534 3.372l114.042-16.8315s9.6014-.2882 12.82 2.3182c0 0 1.6652 1.837 2.004 2.5223l.6745.9347s.5004 1.6248-1.8115 3.8875c0 0-4.0815 3.2427-7.9154 4.1763l-48.9582 9.8303-4.2449 2.7485-10.343 1.7538s-5.2587.9683-12.194.3714l-33.3935 6.3583s-11.697.336-17.7216-.1206l-39.4953-2.196z" fill="url(#n)"/>
      <path d="M-305.6362 343.0859s1.2262 5.1146 4.3445 5.3277c3.1184.213 3.5393-3.9253 3.5393-3.9253z" opacity=".4884"/>
      <path d="M-290.761 334.288l-1.6997.1236s-2.897 2.0392-7.0647 3.4902c-4.1675 1.451-.3405 2.7208-.3405 2.7208l-.8506 3.3388 2.9642.527s-.421 4.138-3.5394 3.925a2.8732 2.8732 0 01-.5126-.0838c.0845.1654.7256 1.0733 4.5047.493 0 0 8.3432-1.3614 11.023-3.5667 0 0 2.0222-9.1529-4.4844-10.9678z" fill="#cad2dd"/>
      <path d="M-292.7764 334.3666c-1.9267-.0573-8.8248 2.3074-8.8248 2.3074l.9023 1.7404c.2903-.167.673-.3383 1.1735-.5126 4.1676-1.451 7.0647-3.4902 7.0647-3.4902-.0807-.0268-.1873-.0411-.3157-.045z" fill="#e6e6e6"/>
      <path d="M-290.761 334.288c6.5066 1.815 4.4845 10.9679 4.4845 10.9679 1.9204-1.8187 1.9572-3.723 1.157-7.0626-.8002-3.3397-5.6415-3.9052-5.6415-3.9052zm4.4845 10.9679a4.8325 4.8325 0 01-.216.1648 1.3789 1.3789 0 00.216-.1648z" fill="#e6e6e6"/>
      <path d="M-324.917 340.6469l-.8698.466-2.0608 1.105 1.1389.4769 2.5957.007 3.173.008 2.5104-1.3028 3.8902-.0884-1.1204.802-2.2737 1.6289 2.5688-.1075 2.5508-.1064 1.5001-.7912-2.9755 1.803 1.233.218 4.7108-.2805.7028-.6357 1.0956-.388-.3313.2521-2.5146 1.9136 4.0907-.1095 1.8774-.4832.3039-.7132 1.4785-.373-2.281 2.4106 1.9833-.0816 4.102-.7451 1.2134-.6636-.6438-.7984-12.544-3.3827z" fill="#ccc"/>
      <rect width=".9173" height="1.586" x="-387.7635" y="342.0863" ry=".4586"/>
      <rect ry=".4586" y="342.0863" x="-387.7635" height="1.586" width=".9173"/>
      <rect ry=".4586" y="341.815" x="-386.1737" height="1.586" width=".9173"/>
      <rect width=".9173" height="1.586" x="-386.1737" y="341.815" ry=".4586"/>
      <rect width=".9173" height="1.586" x="-384.4207" y="341.5145" ry=".4586"/>
      <rect ry=".4586" y="341.2432" x="-382.8309" height="1.586" width=".9173"/>
      <rect width=".9173" height="1.586" x="-381.1836" y="340.9066" ry=".4586"/>
      <rect ry=".4586" y="340.6353" x="-379.5939" height="1.586" width=".9173"/>
      <rect ry=".4586" y="340.3347" x="-377.8408" height="1.586" width=".9173"/>
      <rect width=".9173" height="1.586" x="-376.2511" y="340.0635" ry=".4586"/>
      <rect width=".9173" height="1.586" x="-374.9609" y="339.8736" ry=".4586"/>
      <rect ry=".4586" y="339.6023" x="-373.3712" height="1.586" width=".9173"/>
      <rect ry=".4586" y="339.3019" x="-371.6182" height="1.586" width=".9173"/>
      <rect width=".9173" height="1.586" x="-370.0284" y="339.0306" ry=".4586"/>
      <rect ry=".4586" y="338.6939" x="-368.3811" height="1.586" width=".9173"/>
      <rect width=".9173" height="1.586" x="-366.7914" y="338.4226" ry=".4586"/>
      <rect width=".9173" height="1.586" x="-365.0383" y="338.1221" ry=".4586"/>
      <rect ry=".4586" y="337.8509" x="-363.4486" height="1.586" width=".9173"/>
      <rect ry=".4586" y="337.6242" x="-361.7846" height="1.586" width=".9173"/>
      <rect width=".9173" height="1.586" x="-360.1949" y="337.3529" ry=".4586"/>
      <rect width=".9173" height="1.586" x="-358.4418" y="337.0524" ry=".4586"/>
      <rect ry=".4586" y="336.7812" x="-356.8521" height="1.586" width=".9173"/>
      <rect width=".9173" height="1.586" x="-355.2048" y="336.4445" ry=".4586"/>
      <rect ry=".4586" y="336.1732" x="-353.6151" height="1.586" width=".9173"/>
      <rect ry=".4586" y="335.8727" x="-351.862" height="1.586" width=".9173"/>
      <rect width=".9173" height="1.586" x="-350.2723" y="335.6014" ry=".4586"/>
      <rect width=".8639" height="1.586" x="-335.8149" y="333.1896" ry=".4586"/>
      <rect ry=".4586" y="332.9183" x="-334.3177" height="1.586" width=".8639"/>
      <rect ry=".4586" y="332.6178" x="-332.6665" height="1.586" width=".8639"/>
      <rect width=".8639" height="1.586" x="-331.1693" y="332.3465" ry=".4586"/>
      <rect ry=".4586" y="332.0099" x="-329.6178" height="1.586" width=".8639"/>
      <rect width=".8639" height="1.586" x="-328.1205" y="331.7386" ry=".4586"/>
      <rect width=".8639" height="1.586" x="-326.4694" y="331.4381" ry=".4586"/>
      <rect ry=".4586" y="331.1668" x="-324.9722" height="1.586" width=".8639"/>
      <rect ry=".3934" y="329.9594" x="-317.0409" height="1.3603" width=".8494"/>
      <rect width=".8494" height="1.3603" x="-315.5688" y="329.7267" ry=".3934"/>
      <rect width=".8494" height="1.3603" x="-313.9455" y="329.4689" ry=".3934"/>
      <rect ry=".3934" y="329.2363" x="-312.4735" height="1.3603" width=".8494"/>
      <rect width=".8494" height="1.3603" x="-310.9481" y="328.9475" ry=".3934"/>
      <rect ry=".3934" y="328.7149" x="-309.476" height="1.3603" width=".8494"/>
      <rect ry=".3934" y="328.4571" x="-307.8527" height="1.3603" width=".8494"/>
      <rect width=".8494" height="1.3603" x="-306.3806" y="328.2245" ry=".3934"/>
      <rect width=".7535" height="1.586" x="-281.4407" y="324.0188" ry=".4586"/>
      <rect ry=".4586" y="323.7475" x="-280.1349" height="1.586" width=".7535"/>
      <rect ry=".4586" y="323.447" x="-278.6948" height="1.586" width=".7535"/>
      <rect width=".7535" height="1.586" x="-277.389" y="323.1757" ry=".4586"/>
      <rect ry=".4586" y="322.8391" x="-276.0358" height="1.586" width=".7535"/>
      <rect width=".7535" height="1.586" x="-274.73" y="322.5678" ry=".4586"/>
      <rect width=".7535" height="1.586" x="-273.29" y="322.2673" ry=".4586"/>
      <rect ry=".4586" y="321.996" x="-271.9841" height="1.586" width=".7535"/>
      <rect ry=".4586" y="324.8841" x="-285.4136" height="1.586" width=".7535"/>
      <rect width=".7535" height="1.586" x="-284.1078" y="324.6128" ry=".4586"/>
      <rect width=".7535" height="1.586" x="-282.6678" y="324.3123" ry=".4586"/>
      <path d="M-335.58 341.0527l16.4386.4454s18.8671 4.4915 22.9707 3.5274c0 0 1.7307.0284 2.593-.0322 4.823-.339 13.2447-.5405 14.3863-1.8508l-.0431-.4768s-12.5171-.3975-15.0058-2.7274c0 0-11.805-6.8005-12.1356-7.3437-.3306-.5431-3.9416-.231-6.8065.7806 0 0-20.9226 5.997-22.3977 7.6775z" fill="#e3ebec"/>
      <path d="M-267.1372 318.64c-.164.024-.3154.0723-.3906.1705-.2045.267.1054 1.0035.1054 1.0035l1.1245-.1752c-.292-.3654-.5882-.711-.8392-.9989z" stroke="#000" stroke-width=".2646"/>
      <path d="M-429.9494 345.6861l-1.6929 7.2456-1.2713 1.742 8.5683-1.744 11.3028-6.6654 7.2258-2.9368-.5503-.6891z" fill="#a7bbcc"/>
      <path d="M-448.7415 301.006l19.4044 37.5465 28.8599-5.0528c-2.9922-1.2166-5.3078-2.836-7.6783-5.2393l-28.5573-26.165z" fill="#3b6468"/>
      <path d="M-427.8468 335.0684l14.8523-5.2224.5382-2.5698-10.2721-4.855-8.2357-6.4808-2.3784-4.2443c-1.5953-3.7842-2.3763-4.081-2.3394.1877-.0107 2.0207 1.0517 5.9703 1.0517 5.9703l4.2432 9.2284 2.3239 4.0339-2.4045 3.9518s1.139.4852 2.6208.0002z" fill="#fff"/>
      <path d="M-433.8686 318.9211c.0164.0601.0743.0917.0683.1631.0275.0174.0458.0235.045.0632-.0153.0275-.008.0632.007.0774.0275.007.004.0377.0161.0571l.0326.0214c.0183-.0183.0224.0154.0275.0134-.0245.0887.0427.1468.0806.1794.0193.0235.0107.104.0937.269 1.861 3.9117 4.2622 9.0117 9.5314 11.1632 0 .0183-1.804 1.165-3.511 2.2473-1.534.9723-2.9904 1.8926-2.9904 1.8926l1.1567-5.2725-2.2906-4.496-3.0524-4.9423-.1951-4.4172-.052.1111c.0316.0816.0418.2202.0906.2833l.0458.1978c.0235.0866.0743.3332.0988.3608.007.0397.1814.372.1916.4117.0133.0296.0825.3343.1111.3496.0154-.0107.0397.112.045.1284-.0124.0397.0477.1804.0773.208.0107.0306-.007.1038.0285.0916 0 0-.0107.0632.0142.0734.0387.054.0551.049.0398.105 0 .0427.0561.106.0694.1396.0107.0356.05.16.05.16.0355.0407.0386.1132.0906.1713z" fill="#3b6468"/>
      <path d="M-426.1952 320.5508c-.0347.0183-.0734.0928-.0785.1274-.005.0336.0245.1366.0734.2395.052.109.0887.2253.1713.3099.0204.0713.0887.114.107.1916.0743.114.1406.2354.214.3526.0469.0367.0592.103.103.1447.1059.1223.1916.261.2976.3822.0224.052.0489.0866.0979.1183.007.0948.114.1508.161.2334.0254.0592.112.0846.107.1549.0683.0623.0795.1539.162.1977l.009.0316c.0511.0765.1213.1396.1784.212.0326.0007.0459.0326.0541.0602.1519.1722.3251.3333.4678.5147.0307.0162.0378.0795.0846.0754.0714.0958.159.1773.2579.2466l-.0007.008c.0652.0551.1172.1172.1844.1672.0164.044.0856.05.0906.101.0917.0876.1927.1946.3078.2456-.0107.0734.1203.0396.0825.1182.0285.007.0612.0245.0754.048-.0326.0642-.0937-.008-.1345.0284-.0652.0214-.098-.053-.162-.0387a.3552.3552 0 01-.156-.054c-.1967-.0552-.319-.151-.4933-.264-.0489-.0683-.1325-.0988-.1814-.1662.007-.004.008-.0133.004-.0194-.052.0142-.0714-.06-.11-.0694-.0286-.0107 0-.052-.0419-.0449-.0979-.106-.1946-.214-.2935-.3139.0007-.0131-.0107-.0224-.0214-.0174-.0235-.0214-.0285-.054-.066-.0632l.0006-.0254c-.0407.007-.0478-.0347-.0724-.06-.0336-.0285-.0866-.0663-.104-.1141-.0304.007-.0234-.0438-.055-.0418-.0213-.0174-.0203-.0601-.0611-.0703-.004-.0223-.0276-.0152-.0387-.0326-.001-.0418-.0427-.0418-.056-.0795-.2304-.2854-.4984-.5636-.7175-.8673-.1376-.1896-.2915-.3639-.4097-.5667-.0652-.0825-.1376-.16-.1967-.2456.003-.051-.0478-.0632-.0561-.109-.0928-.1203-.1774-.2548-.2793-.367-.1008-.1813-.2833-.3332-.3904-.5075-.1253-.156-.1518-.3557-.3312-.4658-.0265-.0164-.1162-.0337-.1437-.0478-.0316.0107.0007.0856-.0164.1141-.0336.1468.0407.2426.098.3782.053.056.058.1692.0998.2364.0968.1417.1835.3027.2925.4311-.001.0276.0316.0376.0276.0612.104.1682.2446.3048.3343.476.109.1304.1896.2803.3027.4097.0836.1305.1988.2436.2783.375.1162.157.585.6462.6706.8246.0224.051.1253.1192.1457.1732-.0468-.0006-.0285.0164-.06-.008-.0215.005-.0907-.0458-.0949-.0336-.0174 0-.1335-.057-.1794-.0694-.0632.0387-.2201-.1549-.2741-.1437-.1121-.001-.1784-.0958-.2579-.156-.0123-.0448-.0643-.0591-.0959-.0905-.2018-.263-.528-.6095-.746-.8623-.0592-.1212-.1865-.1936-.2293-.3281-.0254-.0418-.0571-.0612-.0937-.0958-.0213-.054-.0835-.0774-.0968-.1376-.0876-.0815-.1234-.1998-.2029-.2895-.0398-.007-.0275-.054-.051-.0763-.101-.1478-.2171-.2833-.3282-.427-.1305-.2181-.3017-.4067-.422-.634-.0774-.0928-.1447-.1895-.214-.2894-.1233-.1468-.211-.3272-.3282-.478-.0214-.0723-.0836-.112-.1202-.1712-.1163-.1651-.1998-.3578-.3221-.5188-.0133-.06-.0623-.105-.0897-.159-.0856-.1681-.2018-.3261-.2844-.4922-.2221-.3751-.4137-.745-.6298-1.1242-.0107-.0285-.0561-.0459-.045-.0866-.0611-.1008-.1334-.1947-.1803-.3007l-.1254-.2232c-.103-.1905-.1712-.5523-.1712-.5523l12.4667 7.4805 6.4565 3.4564-1.269 4.8666-14.5369 3.3245s2.1933-.7165 5.1612-1.8926c1.9079-.7563 4.1348-1.7031 6.3057-2.7712 5.6687-2.7916 3.2675-2.9281 1.9313-2.8955-3.3388.0825-7.117-1.7459-9.245-4.1297 0 0-.008-.009-.0917-.0763-.0367-.0295-.052-.0428-.0958-.0734-.0561-.0397-.104-.0856-.2201-.1662-.154-.1702-.2803-.2741-.426-.4484-.107-.0725-.1234-.2385-.2528-.2905-.0661-.0774-.0957-.1783-.1875-.2334.0009-.104-.0877-.06-.1295-.159-.1223-.1712-.1539-.2548-.1692-.2721-.048-.1213-.1437-.0988-.1783-.2242-.0347-.0856-.1672-.1794-.2049-.263-.1039-.0866-.2578-.3128-.263-.318-.004-.1233-.109-.213-.1304-.2242-.057-.0174-.11-.1202-.1518-.0795" fill="#3b6468"/>
      <g>
        <path d="M-434.632 311.0755l.1397.0754c.0183-.0057-.0795.0184-.0643.0049.0377.0316.055.0866.0826.1305.0346.051.0398.105.0734.163.0065.0775.0804.1397.0825.2171.0643.1254.109.2823.1356.42.0356.059.0305.1365.0632.2088.0346.1132.0499.2406.1233.3455.0214.105.0672.2008.1172.2905.0897.3577.2385.6971.3496 1.0508.0336.0346.0315.0846.056.1264.1417.2293.157.5136.2966.745.108.2477.1937.5188.3078.7634l-.0008.0016c.0265-.0008.0074.0418.0356.048-.0132.0325.0195.0498.0296.0744.0316.0784.0764.1773.104.2599-.0066.051.0448.0907.061.1416.154.321.2916.6615.4495.9815.1988.4403.3924.8898.6492 1.2903.206.3944.4067.7919.638 1.169.0979.2232.213.4423.3772.6237.0111.058.053.103.0845.1519l.0734.1457c-.0265.053.055.0979-.0016.1417-.0008.0183.0073.0418.0214.054a.3213.3213 0 01-.0397.0846c-.0143-.0123-.0275.0265-.0418.0244.0082.0347-.0049.0347-.0439.055-.0152.0009-.0224.0184-.0428.0164-.06-.0571-.0499-.0017-.1009-.0601-.0234.0073-.0876-.0581-.107-.0632-.0876-.0295-.104-.11-.16-.1315-.1682-.1529-.2262-.3852-.3669-.5585-.109-.1753-.215-.3445-.317-.5259-.0958-.1926-.2385-.3669-.3098-.5738-.1345-.2354-.2884-.479-.375-.7206-.0592-.0631-.0734-.157-.1264-.2242-.0561-.1661-.1325-.324-.2212-.48-.0295-.162-.1335-.2823-.1916-.429-.1305-.1377-.1182-.3609-.2354-.5117-.0734-.0979-.0928-.2416-.1458-.3567-.163-.2171-.1885-.5157-.3322-.746-.0856-.208-.1702-.3996-.2283-.6208-.0744-.1202-.0571-.2588-.1183-.3821-.0032-.0724-.0458-.1438-.0672-.209-.055-.104-.048-.209-.1162-.3037-.0356-.1763-.102-.317-.1519-.4923-.058-.216-.157-.4025-.1895-.6288-.0897-.2436-.1335-.4882-.2375-.7195-.0275-.1305-.1009-.2762-.1325-.3996-.0204-.0265.0367-.1732.0112-.1967-.0092-.0897-.0653-.1192.0173-.1875.0074-.0285-.0065-.0479.0225-.0642.0016-.05-.0174-.272.0642-.2201" fill="#00655a"/>
        <path d="M-434.0918 317.0387a2.018 2.018 0 00-.0499-.1345c-.0152-.0091-.0112-.0326-.0224-.051-.0265-.104-.0897-.1844-.1121-.2935l-.154-.5238c-.0203-.0017-.0048-.0327-.0244-.0255-.0652-.1987-.1213-.4005-.1865-.6105-.0408-.158-.109-.3282-.159-.4882-.0163-.1834-.108-.37-.1539-.5524-.052-.1386-.0805-.2792-.111-.423-.0755-.3108-.1417-.5493-.1662-.8652.0295-.0367.0102-.1335.053-.1519.0866-.0315.0174-.1814.0958-.1763.1906.0907.1396.4525.2731.5952.0623.1753.0928.371.1825.5371.0008.0449.0876.0347.0978.0775.0948.2507.1142.5636.1794.8214.0713.1651.1121.3455.16.5188.0622.1926.1519.3639.2375.5422-.0074.0174-.0041.0418.0102.054.0275.102.0316.218.1019.3037.0275.0795.0602.1437.0907.211.0081.0346.0174.0724.0448.0978l.0033.0356h-.004c.057.0918.056.1794.1202.264-.0122.0132.0008.0336.0033.053.0234.004.0214.0428.0244.0663.0163.0214.0163.0621.0469.0775.0632.1314.0611.2925.1427.4137.0295.0805.0703.1499.0937.2345.0785.1375.1397.2904.206.4413.058.1294.1161.2578.1477.3883.0112.0285.0326.053.0347.0835.0703.1223.1141.2559.1702.3833.0224.0173.0163.0611.0335.0866.0632.102.1111.2018.161.3078.0327.0133.0225.0581.0398.0764.052.051.049.1376.1009.1885.049.1152.1121.213.16.3282.0754.1539.155.314.2446.4627.0336.0917.0917.157.1284.2426.0877.1243.1356.269.212.3975.1498.2568.3486.4953.4301.7898.0377.0336.0397.0826.0643.1203.1172.2212.2527.4352.3923.6441.0327.1753.1927.2762.2538.4423.0326.0582.0775.108.1193.1641.0968.1855.2334.3455.3546.5137.0846.0826.1315.1936.207.2844.0183.0224.0111.051.0101.0764-.0235.0479-.0652.0978-.1233.0907l-.0133-.0082c-.0713.0316-.1539.0065-.2242.0122-.0113-.0173-.0306-.0081-.0377.0017-.103-.0174-.1284-.1285-.2059-.1845-.107-.104-.2578-.1967-.3016-.3486-.0684-.1243-.1-.2537-.1937-.3608-.0958-.1457-.1794-.2925-.2803-.4341-.0275-.0907-.1233-.1295-.1375-.2293-.0265-.0357-.0398-.0764-.0755-.103-.0336-.057-.0448-.1202-.0856-.1712-.0032-.049-.053-.0734-.0734-.1162-.0101-.0948-.0927-.161-.1304-.2477-.0621-.0866-.0836-.1875-.1488-.27-.0234-.0439-.0357-.0958-.0785-.1264-.049-.0968-.0989-.2018-.1682-.2793.0049-.0254-.0306-.0214-.0306-.0438-.0632-.0918-.0804-.2161-.159-.2956-.0387-.0724-.0489-.1437-.1029-.2038-.0204-.1234-.1172-.1916-.1437-.3109-.0805-.1468-.1824-.2762-.2507-.43-.0388-.0541-.0754-.1132-.1121-.1703-.0092-.1488-.1285-.2385-.1774-.372-.0785-.1896-.1488-.3914-.2731-.5544-.051-.1233-.0958-.2548-.1641-.368-.0377-.0856-.0458-.1895-.1172-.2568-.0785-.2364-.2202-.4586-.2925-.6991-.0265-.0388-.0387-.0897-.0734-.1223-.0346-.155-.0754-.2783-.1131-.4281" fill="#00655a"/>
        <path d="M-432.8127 313.4685c.0235.0367.0958.046.111.103.0735.0285.0796.1172.1193.1702.0602.214.1182.424.2548.6023l.0458.1722c.0255.0235.0286.0653.049.0969.059.11.0662.2313.1528.3271.0102.0428.0612.0612.0612.108.0265.0388.0295.0918.0744.1244.0734.2334.1468.4372.2742.6431.0704.103.0785.2405.1671.3333.0377.0744.0907.1406.1203.2222.0295.0224.0265.0754.048.104.0978.2007.2456.3668.325.5788.049.049.0805.1172.0734.1855.0571.0836.0928.1794.161.2558.046.1131.1387.1937.1703.313.0306.0264.059.052.052.0916.0357.0663.0856.102.1284.162-.004.0195.0102.0316.0204.0388.0224.0979.0764.1692.106.262.0336.0866.106.1467.1427.2282.0958.0867.1253.2192.2059.318.106.1763.2007.3567.269.5514.0877.0989.1804.213.2232.3496.0621.0764.1162.158.1896.2293.048.1671.1702.2803.2344.4423.1345.158.1885.3639.3445.4994.051.0764.1019.1529.1457.2355.0347.0438.0571.113.101.159.0957.105.1976.216.2771.3404.0662.0927.1305.1885.1753.2976l.0388.1243c.004.0642.0163.1488-.0286.1967-.0224-.0049-.0407.0008-.0632-.0102.0041 0 .0009-.0065 0-.0112-.0366.0057-.0376-.0265-.062-.0418-.0317-.0024-.0134-.049-.047-.048-.0652-.0815-.1671-.0947-.2232-.1854-.0754-.0326-.0968-.109-.1742-.1427-.1101-.1508-.1998-.317-.3292-.4505-.053-.0958-.1407-.1722-.1876-.2721-.1162-.1947-.266-.369-.3873-.5595-.1926-.207-.3292-.4505-.4688-.693-.0408-.0286-.0734-.0643-.0785-.1153-.2487-.3444-.4525-.7195-.6635-1.0823-.156-.2416-.2905-.481-.425-.7277-.0102-.0017-.0143-.0133-.0092-.0204a2.8617 2.8617 0 01-.27-.479c-.0939-.154-.1611-.315-.258-.4637a13.2704 13.2704 0 00-.3495-.69c-.0163-.0836-.0826-.1437-.105-.2243-.1325-.1905-.2405-.4199-.3129-.638-.0153-.0163-.0296-.0336-.0275-.0611-.1-.1325-.1305-.321-.2202-.4699-.1152-.2262-.1671-.4352-.2477-.6257-.0132-.1478-.162-.267-.0968-.428-.0336-.0399-.0111-.099-.0316-.1367-.0102-.0581-.0234-.1141-.0049-.161-.0073-.0418.0295-.0704.058-.0917.048-.0357.1-.0255.152-.0367" fill="#00655a"/>
        <path d="M-433.0339 312.5553c-.0387-.054-.0448-.1426-.1192-.1712-.0153-.057-.0867-.0652-.11-.103-.0521.0123-.104.0009-.152.0368-.0285.0224-.0652.051-.058.0917-.0184.0469-.0065.103.0049.161.0204.0388-.0008.0979.0326.1376.0693.0816.1203.0602.1865.1417.0326 0 .054.0907.0856.0927.0234.0143.0245.0479.0622.0418 0 .0049.004.0102 0 .0112.0224.0113.0417.0041.0631.0102.0449-.0478.052-.1386.049-.2028z" fill="#00655a"/>
        <path d="M-435.0733 310.4752c.0336.057-.0346.162.0327.212.0101.0581.0988.3577.166.372.053-.0057.0959-.2171.1468-.2487.0918-.0581.0245-.104.0225-.1254.0224-.0458.0968-.1508.0917-.21-.0163-.0396-.0724-.0488-.102-.0916-.062-.0867-.107-.2355-.166-.3221-.0336-.0033-.0102-.048-.0418-.053-.0224-.0163-.0204-.051-.057-.048-.0009-.004-.0042-.0101 0-.0101-.0215-.0133-.0408-.0082-.0612-.0163-.049.0437-.0653.1325-.0673.1967z" fill="#00655a"/>
        <path d="M-429.1345 325.345c-.0713.0734.106.369.1794.3405.0499.0315.108-.0113.1519 0 .0295-.0439.0743-.0704.0856-.1295.0057-.0367.0133-.0815-.0194-.107-.0184-.0469-.0653-.0795-.1132-.1151-.0398-.0143-.0652-.0724-.1172-.0785-.0632-.0081-.0927.0133-.1671.0897" fill="#00655a"/>
        <path d="M-427.6404 323.0499c.0428.0499.0571.1376.1325.16.0204.056.0928.0581.1193.0927.051-.0153.103-.0092.1478-.0489.0265-.0245.0611-.055.0499-.0958.0153-.049-.0017-.103-.0184-.16-.0224-.0367-.0065-.0979-.0439-.1345-.0754-.0755-.1681-.0907-.2395-.1672-.0336.004-.0193-.0438-.051-.0438-.0244-.0122-.0285-.0458-.0642-.0367-.0016-.004-.0057-.0102-.0008-.0111-.0235-.0092-.0417-.0008-.0642-.005-.0408.052-.0408.1417-.0326.206z" fill="#00655a"/>
        <path d="M-429.3913 324.6041c.1447.0877.2487.4434.161.4454-.0632.0016-.3078-.0326-.3914-.0602-.0631-.0204-.3903-.4046-.4137-.4892-.0459-.162.21-.1855.3332-.1743.0856.0082.1386.1713.3109.2783" fill="#00655a"/>
        <path d="M-426.7873 320.0107c.0357.0407.0663.2385.1264.2558.0163.0448.103.0662.1243.0937.0408-.0122.0826-.0073.1182-.0387.0215-.0194.049-.0448.0408-.0774.0112-.0377-.0024-.0816-.0153-.1274-.0184-.0296-.103-.215-.1325-.2457-.0612-.059-.1641-.0917-.2222-.1518-.0265.0032-.0143-.0367-.0408-.0357-.0194-.009-.0224-.0366-.051-.0295-.0007-.0032-.004-.0081-.0007-.0092-.0184-.0073-.0336 0-.051-.004-.0326.0418-.0326.114-.0265.165z" fill="#fff"/>
      </g>
    </g>
    <g data-airplane="all-nipon-airways" opacity="1" transform="translate(215.2002 -213.4342)">
      <path d="M-192.904 255.5834l-22.2962-8.3036s6.7804-1.2843 8.6815-.6712c1.9011.6132 22.8087 4.086 22.8087 4.086l5.0961 2.535z" fill="#b4c3d0"/>
      <path d="M-141.8266 230.123l-3.4446 1.6092 7.0014.1238 2.5527 1.0027-3.226 1.4432 6.8792.2397 2.3114.6923-2.944 1.4872 8.147.7243-2.0797 1.5589 6.4818.3507-.2053-1.434z" fill="#ccc"/>
      <path d="M-96.0684 237.5496s-36.409-6.3266-44.483-10.6313c0 0-22.4022-8.187-25.5939-6.7407 0 0 14.388 6.0484 15.9241 7.2961l35.9017 14.8546z" fill="#b8c8d8"/>
      <path d="M-197.7758 256.6253l14.9514-3.8501-2.8832-1.4143-19.6007-37.9267 12.0288 1.0894s.587-.091 1.1725.4302c9.803 9.0717 20.5609 17.9282 30.8289 26.734 0 0 3.8755 4.7677 10.2533 3.372l114.042-16.8316s9.6014-.2882 12.82 2.3183c0 0 1.6652 1.837 2.004 2.5223l.6745.9346s.5004 1.6249-1.8115 3.8875c0 0-4.0815 3.2428-7.9154 4.1764l-48.9582 9.8303-4.2449 2.7485-10.343 1.7537s-5.2587.9683-12.194.3715l-33.3934 6.3583s-11.697.3359-17.7217-.1206l-39.4953-2.196z" fill="url(#o)"/>
      <path d="M-204.6413 214.7254l18.9338 36.6355 2.883 1.4144-13.812 3.5563c15.1192-.3645 40.4149-1.1192 55.6492-2.389 26.308-2.1927 78.5565-10.0567 78.5565-10.0567l39.135-5.995-121.1595 8.1421c-7.8644.0146-14.2338 1.1553-20.5176-4.4033l-27.6567-26.1281z" fill="#223f9a"/>
      <path d="M-204.6413 214.7254l18.9338 36.6355 2.883 1.4144-13.812 3.5563c15.1192-.3645 40.4149-1.1192 55.6492-2.389 21.0106-1.7511 58.1517-7.0608 72.4246-9.1519l-102.9314 6.1345c-6.9371.1531-7.698.087-11.0175-4.2645l-19.5856-31.771z" fill="#00b3f0" fill-opacity=".9977"/>
      <path d="M-62.2029 255.5142s1.2262 5.1147 4.3446 5.3277c3.1184.213 3.5392-3.9253 3.5392-3.9253z" opacity=".4884"/>
      <path d="M-47.3277 246.7164l-1.6997.1235s-2.897 2.0393-7.0647 3.4903c-4.1675 1.451-.3405 2.7207-.3405 2.7207l-.8506 3.3388 2.9642.5271s-.421 4.1379-3.5394 3.9249a2.8732 2.8732 0 01-.5126-.0837c.0845.1654.7256 1.0733 4.5047.493 0 0 8.3432-1.3614 11.023-3.5667 0 0 2.0222-9.153-4.4844-10.9679z" fill="#cad2dd"/>
      <path d="M-49.3431 246.795c-1.9267-.0573-8.8248 2.3073-8.8248 2.3073l.9023 1.7405c.2903-.1672.673-.3384 1.1735-.5126 4.1676-1.451 7.0647-3.4903 7.0647-3.4903-.0807-.0268-.1873-.041-.3157-.045z" fill="#e6e6e6"/>
      <path d="M-47.3277 246.7164c6.5066 1.815 4.4845 10.9678 4.4845 10.9678 1.9204-1.8186 1.9572-3.723 1.157-7.0626s-5.6415-3.9052-5.6415-3.9052zm4.4845 10.9678a4.8325 4.8325 0 01-.216.1649 1.3789 1.3789 0 00.216-.1649z" fill="#e6e6e6"/>
      <path d="M-81.4838 253.0752l-.8697.4661-2.0608 1.1049 1.1389.477 2.5957.007 3.173.008 2.5104-1.3028 3.8902-.0884-1.1204.802-2.2737 1.6288 2.5688-.1074 2.5508-.1065 1.5001-.7912-2.9755 1.803 1.233.2181 4.7108-.2806.7028-.6356 1.0956-.3881-.3313.2522-2.5146 1.9135 4.0907-.1095 1.8774-.4832.304-.7131 1.4784-.3731-2.281 2.4107 1.9833-.0816 4.102-.7452 1.2134-.6635-.6438-.7984-12.544-3.3828z" fill="#ccc"/>
      <rect ry=".4586" y="254.5146" x="-144.3302" height="1.586" width=".9173"/>
      <rect width=".9173" height="1.586" x="-144.3302" y="254.5146" ry=".4586"/>
      <rect width=".9173" height="1.586" x="-142.7404" y="254.2434" ry=".4586"/>
      <rect ry=".4586" y="254.2434" x="-142.7404" height="1.586" width=".9173"/>
      <rect ry=".4586" y="253.9428" x="-140.9873" height="1.586" width=".9173"/>
      <rect width=".9173" height="1.586" x="-139.3976" y="253.6715" ry=".4586"/>
      <rect ry=".4586" y="253.3349" x="-137.7503" height="1.586" width=".9173"/>
      <rect width=".9173" height="1.586" x="-136.1606" y="253.0636" ry=".4586"/>
      <rect width=".9173" height="1.586" x="-134.4075" y="252.7631" ry=".4586"/>
      <rect ry=".4586" y="252.4918" x="-132.8178" height="1.586" width=".9173"/>
      <rect ry=".4586" y="252.302" x="-131.5276" height="1.586" width=".9173"/>
      <rect width=".9173" height="1.586" x="-129.9379" y="252.0307" ry=".4586"/>
      <rect width=".9173" height="1.586" x="-128.1849" y="251.7302" ry=".4586"/>
      <rect ry=".4586" y="251.4589" x="-126.5951" height="1.586" width=".9173"/>
      <rect width=".9173" height="1.586" x="-124.9478" y="251.1222" ry=".4586"/>
      <rect ry=".4586" y="250.851" x="-123.3581" height="1.586" width=".9173"/>
      <rect ry=".4586" y="250.5505" x="-121.605" height="1.586" width=".9173"/>
      <rect width=".9173" height="1.586" x="-120.0153" y="250.2792" ry=".4586"/>
      <rect width=".9173" height="1.586" x="-118.3513" y="250.0526" ry=".4586"/>
      <rect ry=".4586" y="249.7813" x="-116.7616" height="1.586" width=".9173"/>
      <rect ry=".4586" y="249.4807" x="-115.0085" height="1.586" width=".9173"/>
      <rect width=".9173" height="1.586" x="-113.4188" y="249.2095" ry=".4586"/>
      <rect ry=".4586" y="248.8728" x="-111.7715" height="1.586" width=".9173"/>
      <rect width=".9173" height="1.586" x="-110.1818" y="248.6016" ry=".4586"/>
      <rect width=".9173" height="1.586" x="-108.4287" y="248.3011" ry=".4586"/>
      <rect ry=".4586" y="248.0298" x="-106.839" height="1.586" width=".9173"/>
      <rect ry=".4586" y="245.618" x="-92.3816" height="1.586" width=".8639"/>
      <rect width=".8639" height="1.586" x="-90.8844" y="245.3467" ry=".4586"/>
      <rect width=".8639" height="1.586" x="-89.2332" y="245.0461" ry=".4586"/>
      <rect ry=".4586" y="244.7749" x="-87.736" height="1.586" width=".8639"/>
      <rect width=".8639" height="1.586" x="-86.1845" y="244.4382" ry=".4586"/>
      <rect ry=".4586" y="244.167" x="-84.6872" height="1.586" width=".8639"/>
      <rect ry=".4586" y="243.8664" x="-83.0361" height="1.586" width=".8639"/>
      <rect width=".8639" height="1.586" x="-81.5389" y="243.5952" ry=".4586"/>
      <rect width=".8494" height="1.3603" x="-73.6076" y="242.3877" ry=".3934"/>
      <rect ry=".3934" y="242.155" x="-72.1355" height="1.3603" width=".8494"/>
      <rect ry=".3934" y="241.8973" x="-70.5122" height="1.3603" width=".8494"/>
      <rect width=".8494" height="1.3603" x="-69.0401" y="241.6646" ry=".3934"/>
      <rect ry=".3934" y="241.3759" x="-67.5148" height="1.3603" width=".8494"/>
      <rect width=".8494" height="1.3603" x="-66.0427" y="241.1432" ry=".3934"/>
      <rect width=".8494" height="1.3603" x="-64.4194" y="240.8855" ry=".3934"/>
      <rect ry=".3934" y="240.6528" x="-62.9473" height="1.3603" width=".8494"/>
      <rect ry=".4586" y="236.4472" x="-38.0074" height="1.586" width=".7535"/>
      <rect width=".7535" height="1.586" x="-36.7016" y="236.1759" ry=".4586"/>
      <rect width=".7535" height="1.586" x="-35.2615" y="235.8754" ry=".4586"/>
      <rect ry=".4586" y="235.6041" x="-33.9557" height="1.586" width=".7535"/>
      <rect width=".7535" height="1.586" x="-32.6025" y="235.2675" ry=".4586"/>
      <rect ry=".4586" y="234.9962" x="-31.2967" height="1.586" width=".7535"/>
      <rect ry=".4586" y="234.6957" x="-29.8567" height="1.586" width=".7535"/>
      <rect width=".7535" height="1.586" x="-28.5508" y="234.4244" ry=".4586"/>
      <rect width=".7535" height="1.586" x="-41.9803" y="237.3124" ry=".4586"/>
      <rect ry=".4586" y="237.0411" x="-40.6745" height="1.586" width=".7535"/>
      <rect ry=".4586" y="236.7406" x="-39.2344" height="1.586" width=".7535"/>
      <path d="M-92.1468 253.481l16.4387.4455s18.8672 4.4915 22.9707 3.5273c0 0 1.7307.0284 2.593-.0322 4.823-.339 13.2447-.5405 14.3863-1.8507l-.0431-.4768s-12.517-.3976-15.0058-2.7275c0 0-11.805-6.8005-12.1356-7.3436-.3306-.5432-3.9416-.231-6.8065.7806 0 0-20.9226 5.997-22.3977 7.6774z" fill="#e3ebec"/>
      <path d="M-23.7038 231.0683c-.164.024-.3155.0724-.3907.1705-.2045.267.1054 1.0036.1054 1.0036l1.1245-.1752c-.292-.3654-.5882-.711-.8392-.999z" stroke="#000" stroke-width=".2646"/>
      <path d="M-186.5161 258.1145l-1.6929 7.2455-1.2713 1.742 8.5683-1.744 11.3028-6.6654 7.2258-2.9368-.5503-.689z" fill="#a7bbcc"/>
      <g transform="scale(.45992 -.45992) rotate(-45 -484.635 1141.7555)" clip-path="url(#p)" fill="#fff">
        <path d="M744.8711 44.7596c.037.184.213.337.412.337.176 0 .341-.132.4-.288l4.227-15.397h6.925l3.528 20.009h-3.049l-2.714-15.407c-.036-.194-.197-.346-.403-.346-.187 0-.347.135-.396.308l-4.236 15.445h-6.922l-3.527-20.009h3.045l2.71 15.348m-11.8233-8.564l-.592 8.965c-.005.199-.138.388-.337.441-.22.055-.445-.06-.532-.256l-9.029-15.934h-3.45l11.342 20.01h6.666l1.334-20.01h-4.948l-.145 2.181c-.024.466-.373.836-.837.836h-7.484l1.688 2.985h5.612c.41 0 .743.36.712.782m37.6249-.0425l-.788 8.882c-.021.232-.211.409-.45.409-.16 0-.303-.083-.386-.209l-8.128-15.823h-3.372l10.269 20.009h6.666l1.774-20.009h-4.986l-.195 2.182c-.037.469-.377.833-.837.833h-7.017l1.532 2.986h5.2c.425 0 .76.365.718.74"/>
      </g>
      <circle cx="-146.4886" cy="257.5052" r=".954" fill="#d33d43"/>
      <ellipse cy="229.5766" cx="-138.1821" rx="1.8628" ry=".9472" fill="#d33d43" fill-opacity=".7091"/>
      <circle r=".954" cy="232.9174" cx="-30.7402" fill="#d33d43"/>
    </g>
  </g>
</svg>