<?xml version="1.0" standalone="no"?>
<!DOCTYPE svg PUBLIC "-//W3C//DTD SVG 20010904//EN"
 "http://www.w3.org/TR/2001/REC-SVG-20010904/DTD/svg10.dtd">
<svg version="1.0" xmlns="http://www.w3.org/2000/svg"
 width="674.000000pt" height="538.000000pt" viewBox="0 0 674.000000 538.000000"
 preserveAspectRatio="xMidYMid meet">
<metadata>
Created by potrace 1.15, written by Peter Selinger 2001-2017
</metadata>
<g transform="translate(0.000000,538.000000) scale(0.100000,-0.100000)"
fill="#fff" stroke="none">
<path d="M3901 5289 c-259 -161 -657 -446 -876 -629 l-80 -66 -85 39 c-505
234 -1104 228 -1608 -18 -608 -296 -999 -870 -1054 -1547 -37 -448 100 -909
377 -1272 36 -47 65 -89 65 -94 0 -5 -20 -54 -44 -108 -68 -155 -131 -330
-175 -486 -66 -236 -76 -299 -76 -513 0 -182 1 -193 27 -264 50 -138 140 -236
253 -277 80 -29 245 -24 360 10 346 104 727 399 1006 778 37 51 66 94 64 97
-2 2 -30 -19 -62 -46 -154 -133 -420 -303 -573 -366 -119 -49 -203 -69 -290
-69 -135 1 -210 43 -261 147 -28 57 -33 79 -37 163 -5 114 9 235 44 369 27
104 71 241 83 262 6 9 32 -3 99 -47 693 -455 1639 -381 2262 176 l69 62 32
-61 33 -62 86 7 c431 31 1422 72 2839 116 179 6 327 12 330 15 24 25 -101 48
-384 69 -955 74 -1381 133 -1895 262 -302 76 -646 191 -643 215 1 8 18 55 37
105 94 242 120 390 120 674 0 253 -17 368 -88 583 -89 270 -227 500 -427 712
-73 77 -246 225 -296 254 -16 9 0 28 137 166 164 165 502 480 683 634 154 133
148 135 -52 10z m-1561 -654 c115 -18 251 -54 357 -95 131 -50 131 -42 12
-150 -605 -548 -1109 -1124 -1518 -1735 -181 -269 -340 -535 -440 -733 -17
-34 -36 -60 -41 -57 -22 14 -155 226 -199 319 -105 219 -156 425 -168 671 -27
599 265 1175 767 1510 256 170 498 253 845 289 69 7 286 -3 385 -19z m776
-330 c343 -260 566 -619 656 -1050 19 -94 23 -140 23 -320 0 -226 -10 -308
-60 -480 -27 -93 -81 -234 -94 -248 -10 -10 -296 133 -433 216 -121 74 -273
184 -365 265 -35 30 -63 52 -63 50 0 -3 119 -228 265 -501 146 -274 265 -501
265 -506 0 -5 -29 -35 -64 -68 -521 -488 -1305 -599 -1947 -278 -93 47 -238
135 -272 165 -10 9 109 268 211 458 377 701 927 1454 1600 2189 92 100 170
182 173 182 4 1 51 -33 105 -74z"/>
</g>
</svg>
